<?xml version="1.0" encoding="utf-8"?>
<!-- Generator: Adobe Illustrator 27.5.0, SVG Export Plug-In . SVG Version: 6.00 Build 0)  -->
<svg version="1.1" id="Ebene_1" xmlns="http://www.w3.org/2000/svg" xmlns:xlink="http://www.w3.org/1999/xlink" x="0px" y="0px"
	 viewBox="0 0 595.3 595.3" style="enable-background:new 0 0 595.3 595.3;" xml:space="preserve">
<style type="text/css">
	.st0{fill:#E50076;}
</style>
<g>
	<path class="st0" d="M155,416.5l0.1-0.2l-0.2,0L155,416.5z M559.2,406.6l0.1,0.1l0-0.1L559.2,406.6z M559.3,394.3l-0.1,0.1l0.1,0
		L559.3,394.3z M228.3,367.4l0.1,0.1l0-0.1L228.3,367.4z M391.3,364.9l-0.1,0.1l0.1,0L391.3,364.9z M317.8,365.1l0.1,0.1l0-0.2
		L317.8,365.1z M384.9,359.4l0.1-0.1l-0.1,0L384.9,359.4z M107.1,353.6l0.1-0.2l-0.2,0L107.1,353.6z M121.7,351.8
		c0-0.1-0.1-0.2-0.1-0.2c-0.1,0-0.1,0.1-0.2,0.1c0,0.1,0.1,0.2,0.1,0.2C121.6,351.9,121.6,351.8,121.7,351.8 M223.8,332.8l0.1-0.1
		l-0.1,0L223.8,332.8z M447.1,324.6l0.2,0.1l0-0.2L447.1,324.6z M402.8,320.7l0.1-0.1l-0.1,0L402.8,320.7z M430.5,317.6l-0.1,0.1
		l0.1,0L430.5,317.6z M388.3,312.4l-0.1,0.1l0.2,0L388.3,312.4z M98.5,307.2l-0.1,0.2l0.2,0L98.5,307.2z M252,306.1l0.1,0.1l0-0.2
		L252,306.1z M300.6,304.9l-0.1,0.1l0.1,0L300.6,304.9z M335.2,299.3l0.1-0.1l-0.1,0L335.2,299.3z M379,293.4l0.1,0.1l0-0.1
		L379,293.4z M559.7,284.8l0.1,0.1l0-0.1L559.7,284.8z M268.8,280.6l-0.1,0.1l0.1,0L268.8,280.6z M262.5,274.4l-0.1-0.1l0,0.1
		L262.5,274.4z M113.3,273.2l0.2,0.1l0-0.2L113.3,273.2z M244.1,262.3l-0.2-0.1l0,0.2L244.1,262.3z M129,244.8l-0.1,0.1l0.1,0
		L129,244.8z M223.3,242.6l-0.2-0.1l0,0.2L223.3,242.6z M193.3,237.4l-0.2-0.1l0,0.2L193.3,237.4z M499.8,228.2l0.1-0.1l-0.1,0
		L499.8,228.2z M549.5,224l-0.1,0.2l0.2,0L549.5,224z M547.9,208.5l-0.2-0.1l0,0.2L547.9,208.5z M551.2,161.1l-0.1,0.1l0.1,0
		L551.2,161.1z M494.7,159.7l-0.1,0l0.1,0.2L494.7,159.7z M512.1,182.5l0,0.2l0.2-0.1L512.1,182.5z M270.8,186.5l-0.2,0.1l0.2,0.1
		L270.8,186.5z M535.9,190.5c-0.1,0-0.1,0.1-0.2,0.1c0,0.1,0.1,0.2,0.1,0.2c0.1-0.1,0.2-0.1,0.3-0.2
		C536.1,190.5,536,190.5,535.9,190.5 M265.3,191.3c0-0.1,0-0.2,0-0.2c-0.1,0-0.2,0-0.2,0c0,0.1,0,0.2,0.1,0.3
		C265.1,191.3,265.2,191.3,265.3,191.3 M550.9,195.7l0,0.2l0.2-0.1L550.9,195.7z M521.2,196.5l-0.1,0.2l0.2,0L521.2,196.5z
		 M548.8,199.3c-0.1,0-0.1-0.1-0.2-0.1c0,0,0,0.1-0.1,0.1c0.1,0,0.1,0.1,0.2,0.1C548.7,199.4,548.7,199.3,548.8,199.3 M287.9,201.9
		c0-0.1,0.1-0.1,0.1-0.2c0,0-0.1,0-0.1-0.1c0,0.1-0.1,0.1,0,0.2C287.8,201.9,287.9,201.9,287.9,201.9 M245.3,202.7
		c0-0.1,0-0.1-0.1-0.2c0,0-0.2,0-0.2,0.1c0,0.1,0,0.1,0.1,0.2C245.1,202.8,245.2,202.8,245.3,202.7 M279.2,205.6
		c-0.1,0-0.2,0-0.2-0.1c0.1,0.1,0.1,0.2,0.2,0.3C279.1,205.7,279.1,205.6,279.2,205.6 M545.5,206.8c0-0.1,0-0.1,0.1-0.2
		c-0.1,0-0.2,0.1-0.2,0.1C545.4,206.8,545.4,206.8,545.5,206.8 M549.7,206.3c0.1,0,0.1,0,0.2,0.1c0-0.1-0.1-0.2-0.1-0.2
		C549.7,206.1,549.7,206.2,549.7,206.3 M346.5,212.5l0,0.1l0.2-0.1L346.5,212.5z M548.9,216l0.2,0.1l0-0.2L548.9,216z M552.7,217.2
		l-0.1-0.1l0,0.1L552.7,217.2z M248.7,218.8l-0.1-0.2c0,0.1-0.1,0.2-0.1,0.3C248.6,218.9,248.7,218.9,248.7,218.8 M551.9,218.7
		c0-0.1,0-0.1-0.1-0.2c-0.1,0-0.1,0-0.1,0c0,0.1,0,0.1,0,0.2L551.9,218.7z M500.7,219.5c0.1,0,0.1,0,0.2,0.1c0-0.1,0.1-0.1,0-0.2
		c0,0-0.1,0-0.2-0.1C500.7,219.4,500.7,219.5,500.7,219.5 M246.2,222.4c-0.1,0-0.2,0-0.2-0.1c0.1,0.1,0.1,0.2,0.2,0.2
		C246.1,222.5,246.1,222.4,246.2,222.4 M530.4,227.4l0.2,0l-0.1-0.2L530.4,227.4z M309.3,228.5c0-0.1,0.1-0.1,0.1-0.2
		c0,0-0.1,0-0.2-0.1c0,0.1-0.1,0.1-0.1,0.2C309.1,228.5,309.2,228.5,309.3,228.5 M514.6,235.2l-0.2-0.1l0,0.2L514.6,235.2z
		 M543.9,237.5c0.1,0,0.2,0.1,0.3,0.1c0,0,0-0.1,0.1-0.2c-0.1,0-0.2-0.1-0.3-0.1C543.9,237.3,543.9,237.4,543.9,237.5 M205.3,238.6
		c0,0.1,0,0.1-0.1,0.2c0.1,0,0.1-0.1,0.2-0.1C205.4,238.7,205.3,238.7,205.3,238.6 M520.7,243.3c0-0.1,0-0.1,0.1-0.2l-0.3,0
		c0,0.1,0,0.2,0.1,0.2C520.6,243.3,520.7,243.3,520.7,243.3 M157.9,248.8c0.1,0,0.2-0.1,0.2-0.1c0-0.1,0-0.2,0-0.2
		c-0.1,0.1-0.2,0.1-0.3,0.2C157.9,248.7,157.9,248.7,157.9,248.8 M507.4,248.3l0,0.2l0.2-0.1L507.4,248.3z M225.6,249.5
		c0-0.1,0-0.2,0-0.3c-0.1,0-0.2,0-0.3,0.1c0,0.1,0,0.2,0.1,0.2C225.4,249.5,225.6,249.5,225.6,249.5 M386.2,252.5
		c0-0.1-0.1-0.1-0.1-0.2c-0.1,0.1-0.2,0.1-0.1,0.2c0.1,0.1,0.1,0.2,0.2,0.2C386.1,252.7,386.2,252.6,386.2,252.5 M137.8,253.3
		l-0.2,0l0.1,0.2L137.8,253.3z M183.4,254c0,0.2,0,0.3,0,0.4c0.1-0.1,0.1-0.1,0.2-0.2C183.5,254.2,183.4,254.1,183.4,254
		 M487.2,255.4c0-0.1-0.1-0.2-0.1-0.2c0,0-0.1,0.1-0.2,0.1c0.1,0.1,0.1,0.2,0.2,0.3C487.2,255.6,487.2,255.5,487.2,255.4
		 M330.7,257.6l0.2,0.1l0-0.2L330.7,257.6z M263,258.5l0.1-0.1l-0.1,0L263,258.5z M339.8,260.6c0,0.1,0,0.1-0.1,0.2
		c0.1,0,0.2-0.1,0.2-0.1C339.9,260.6,339.9,260.6,339.8,260.6 M543.7,260.6c-0.2,0-0.3-0.1-0.4-0.1c0,0.1,0,0.1,0.1,0.1
		C543.5,260.6,543.5,260.6,543.7,260.6 M223.9,262.7c0-0.1,0-0.2,0-0.2c-0.1,0-0.2,0-0.3,0.1c0,0.1,0,0.2,0.1,0.2
		C223.7,262.8,223.8,262.7,223.9,262.7 M137.2,263.1c0-0.1,0-0.2,0-0.2c-0.1,0-0.2,0-0.3,0.1c0,0.1,0,0.2,0.1,0.2
		C137.1,263.2,137.2,263.1,137.2,263.1 M403.9,265c0,0.2,0,0.3,0,0.4c0.1,0,0.1-0.1,0.2-0.1C404,265.2,404,265.1,403.9,265
		 M487.2,267.5c0-0.1-0.1-0.1-0.2-0.2c-0.1,0-0.2,0-0.2,0.1c0.1,0.1,0.1,0.1,0.2,0.2C487,267.6,487.1,267.5,487.2,267.5
		 M114.7,268.4c0-0.1,0-0.2-0.1-0.3c-0.1,0-0.2,0-0.2,0.1c0,0.1,0,0.2,0.1,0.3C114.6,268.5,114.7,268.5,114.7,268.4 M387.3,269.4
		l-0.1-0.2c0,0.1-0.1,0.2-0.1,0.3C387.2,269.4,387.2,269.4,387.3,269.4 M561.8,421c0,0.1,0,0.1,0.1,0.2c0.1,0,0.1,0,0.2,0.1
		c0-0.1,0-0.2-0.1-0.3C562,421,561.9,421,561.8,421 M411.5,271.6c0.1,0,0.2-0.1,0.3-0.1c-0.1-0.1-0.1-0.2-0.2-0.2
		c-0.1,0-0.2,0.1-0.2,0.1C411.4,271.5,411.4,271.6,411.5,271.6 M346.9,275.7c0-0.1,0-0.1,0-0.2c0,0.1-0.1,0.2-0.1,0.3
		C346.8,275.8,346.9,275.7,346.9,275.7 M131.4,278.2l0.1-0.2l-0.2,0L131.4,278.2z M385.6,277.8l0.2,0.1l0-0.2L385.6,277.8z
		 M349.6,279.9c0.1,0,0.2,0,0.2-0.1c0-0.1,0-0.2-0.1-0.2c-0.1,0-0.1,0-0.2,0.1C349.5,279.7,349.6,279.8,349.6,279.9 M505.8,282.3
		c-0.1,0-0.2,0.1-0.2,0.1c0,0,0.1,0.1,0.1,0.2c0.1-0.1,0.2-0.1,0.3-0.2C505.9,282.3,505.9,282.3,505.8,282.3 M140,283.4
		c0-0.1,0.1-0.2,0.1-0.3c-0.1,0-0.2,0-0.2,0.1C140,283.2,140,283.3,140,283.4 M390.9,286.6l0-0.2l-0.2,0.1L390.9,286.6z M267,287.7
		c-0.1,0-0.1-0.1-0.2-0.1c-0.1,0-0.1,0-0.2,0.1c0.1,0,0.1,0.1,0.2,0.1C266.8,287.7,266.9,287.7,267,287.7 M409.9,287.7
		c-0.2-0.1-0.3-0.1-0.4-0.1c0,0.1,0,0.2,0.1,0.2C409.6,287.8,409.7,287.7,409.9,287.7 M342.7,289.2l0.1-0.2l-0.1,0L342.7,289.2z
		 M537.1,288.8c-0.1,0-0.1-0.1-0.2-0.1c0,0.1,0,0.2,0,0.2C537,288.9,537,288.8,537.1,288.8 M540.7,289.6l0.1,0l0-0.2L540.7,289.6z
		 M486,293.6l-0.2,0l0.1,0.2L486,293.6z M243.5,294.1c-0.2-0.1-0.3-0.1-0.4-0.1c0,0.1,0,0.2,0.1,0.2
		C243.3,294.1,243.3,294.1,243.5,294.1 M301.7,294.1c0-0.1-0.1-0.1-0.1-0.2c-0.1,0-0.2,0-0.2,0c0.1,0.1,0.1,0.2,0.2,0.2
		C301.5,294.2,301.6,294.1,301.7,294.1 M346.6,294c-0.1,0-0.1,0-0.2-0.1c0,0.1,0.1,0.2,0.1,0.2C346.6,294.1,346.6,294,346.6,294
		 M536.8,296.2c0-0.1,0.1-0.1,0.1-0.2c-0.1,0-0.2,0.1-0.3,0.1C536.7,296.2,536.7,296.2,536.8,296.2 M510.4,298.6l0.2,0.1l0-0.2
		L510.4,298.6z M543.7,298.7l0.2,0.1c0-0.1-0.1-0.2-0.2-0.3C543.8,298.6,543.8,298.6,543.7,298.7 M271.7,300.6l-0.1,0.2l0.2,0
		L271.7,300.6z M431.8,302.2l-0.2,0l0.1,0.2L431.8,302.2z M130.2,303.6l0.1,0.2l0.1-0.2L130.2,303.6z M96.7,306.6
		c0-0.2,0.1-0.3,0.1-0.4c-0.1,0-0.2,0-0.2,0.1C96.6,306.3,96.6,306.4,96.7,306.6 M359,308.1c0-0.1-0.1-0.1-0.1-0.2
		c0,0.1-0.1,0.1-0.1,0.2c0,0.1,0.1,0.1,0.1,0.2C358.9,308.2,359,308.2,359,308.1 M436.4,308.1l-0.1,0l0.1,0.2L436.4,308.1z
		 M97.3,308.5c0-0.1,0-0.2,0-0.2c-0.1,0-0.2,0-0.2-0.1c0,0.1,0,0.2,0.1,0.3C97.2,308.6,97.3,308.6,97.3,308.5 M320.4,311.1l-0.1-0.2
		l-0.1,0.2H320.4z M96.6,313l0.2,0l-0.1-0.2L96.6,313z M227.8,313.1c-0.1,0.1-0.1,0.3-0.2,0.4c0,0,0.1,0.1,0.2,0.2
		c0.1-0.1,0.1-0.3,0.2-0.4C228,313.3,227.9,313.2,227.8,313.1 M355.3,317.6c-0.1,0-0.2-0.1-0.3-0.1c0.1,0.1,0.1,0.2,0.2,0.3
		C355.3,317.8,355.3,317.7,355.3,317.6 M552.3,318.9c0.1,0,0.2-0.1,0.2-0.1c0-0.1,0-0.2,0-0.2c-0.1,0-0.2,0.1-0.3,0.2
		C552.2,318.7,552.3,318.8,552.3,318.9 M544.9,319.9c0.1-0.2,0.1-0.3,0.2-0.4c0,0-0.1-0.1-0.2-0.2c-0.1,0.1-0.1,0.3-0.2,0.4
		C544.7,319.8,544.8,319.9,544.9,319.9 M98.4,321.6l0.2,0l-0.1-0.2L98.4,321.6z M237.1,321.4l-0.1-0.2l-0.1,0.2L237.1,321.4z
		 M296.9,322.9l-0.1-0.1l0,0.1L296.9,322.9z M435.5,322.9c0-0.1,0-0.1-0.1-0.1c-0.1,0-0.1,0-0.2,0c0,0.1,0,0.2,0.1,0.2
		C435.3,323,435.4,323,435.5,322.9 M411.4,323.6c0,0.1-0.1,0.1-0.1,0.2c0,0,0.1,0,0.1,0.1c0-0.1,0.1-0.1,0.1-0.2
		C411.5,323.6,411.4,323.6,411.4,323.6 M520.3,323.9c-0.1,0-0.1-0.1-0.2-0.1c-0.1,0-0.1,0.1-0.2,0.2c0.1,0,0.2,0.1,0.3,0.1
		C520.3,324,520.3,323.9,520.3,323.9 M412.9,324.6l0.2,0.1l0-0.2L412.9,324.6z M214,326c0,0.1-0.1,0.1-0.1,0.2
		c0,0.1,0.1,0.1,0.1,0.2c0-0.1,0.1-0.1,0.1-0.2C214.1,326.1,214,326.1,214,326 M104.4,326.8l-0.2,0.1l0.2,0.1L104.4,326.8z
		 M402.9,327.1c0-0.1-0.1-0.1-0.1-0.2c0,0.1-0.1,0.1-0.1,0.2c0,0.1,0.1,0.1,0.1,0.2C402.8,327.2,402.9,327.1,402.9,327.1
		 M227.4,327.6c0.1,0,0.1,0.1,0.2,0.1c0,0,0-0.1,0.1-0.1c-0.1,0-0.1-0.1-0.2-0.1C227.5,327.4,227.4,327.5,227.4,327.6 M299.9,337.8
		l0.2,0l-0.1-0.2L299.9,337.8z M75.5,338.7l-0.2,0l0.1,0.3L75.5,338.7z M484.3,338.9l-0.1-0.2l-0.1,0.2L484.3,338.9z M116,340.8
		l0.2-0.1l-0.2-0.1L116,340.8z M232.8,343.2l0.2-0.1l-0.2-0.1V343.2z M92,344.2c-0.1,0-0.1,0-0.2,0.1c0,0.1,0,0.2,0.1,0.2
		c0.1,0,0.1,0,0.2-0.1C92.1,344.3,92.1,344.2,92,344.2 M230.2,344.7c0-0.1,0-0.1,0.1-0.2c-0.1,0-0.1,0.1-0.2,0.1
		C230.1,344.6,230.1,344.6,230.2,344.7 M371.6,344.2c-0.1,0-0.2,0-0.2,0c0,0.1,0,0.2-0.1,0.3c0.1,0,0.2,0,0.4-0.1
		C371.7,344.4,371.7,344.3,371.6,344.2 M64.7,348.4l0.2-0.1l-0.2-0.1L64.7,348.4z M379.2,354.9c0-0.1,0.1-0.1,0-0.2
		c0,0-0.1,0-0.2-0.1c0,0.1,0,0.1,0,0.2C379,354.9,379.1,354.9,379.2,354.9 M168.6,356.9c-0.1,0-0.2-0.1-0.3-0.1c0,0.1-0.1,0.2,0,0.2
		c0.1,0.1,0.2,0.1,0.2,0.1C168.5,357.1,168.5,356.9,168.6,356.9 M375.1,358c-0.1,0.1-0.2,0.1-0.2,0.2c0,0.2,0.1,0.3,0.2,0.5
		c0.1-0.1,0.2-0.1,0.2-0.2C375.2,358.4,375.1,358.2,375.1,358 M304.1,361.4c0-0.1,0-0.2,0-0.2c-0.1,0-0.2,0-0.3,0.1
		c0,0.1,0,0.2,0.1,0.2C304,361.5,304.1,361.4,304.1,361.4 M229.2,364.4l-0.2,0.1l0.2,0.1L229.2,364.4z M306,369.2
		c0.1,0,0.1-0.1,0.2-0.1c-0.1,0-0.1-0.1-0.2-0.1c-0.1,0-0.1,0.1-0.2,0.1C305.8,369.1,305.9,369.1,306,369.2 M548.9,374.6l-0.1,0.2
		l0.2,0.1L548.9,374.6z M87.9,374.7c-0.1,0-0.2,0.1-0.2,0.1c0,0,0.1,0.1,0.1,0.2c0.1-0.1,0.2-0.2,0.3-0.2
		C88.1,374.7,88,374.7,87.9,374.7 M320.5,375.9c-0.1,0-0.1,0-0.2-0.1c0,0.1,0,0.2,0,0.3c0.1,0,0.2,0,0.2-0.1
		C320.5,376.1,320.5,376,320.5,375.9 M226.3,377.8l0.2-0.1l-0.2-0.1L226.3,377.8z M222.1,388.3c-0.1,0-0.2,0-0.2,0.1
		c0,0.1,0,0.2,0,0.3c0.1,0,0.2,0,0.3-0.1C222.2,388.5,222.1,388.4,222.1,388.3 M317.2,391.2l0.1,0l0-0.2L317.2,391.2z M40.3,394.4
		c0-0.1,0-0.2-0.1-0.2c0,0.1-0.1,0.2-0.1,0.3L40.3,394.4z M389.6,400l-0.1-0.2l-0.1,0.2L389.6,400z M556,402.8
		c0-0.1-0.1-0.1-0.1-0.2c-0.1,0.1-0.2,0.1-0.2,0.2c0,0.1,0.1,0.2,0.2,0.3C555.9,403,555.9,402.9,556,402.8 M314,403.6
		c-0.1,0-0.2,0.1-0.2,0.1c0,0.1,0.1,0.1,0.1,0.2c0.1-0.1,0.2-0.1,0.3-0.2C314.1,403.6,314,403.6,314,403.6 M68.8,409.6
		c0.1,0,0.1-0.1,0.2-0.1c-0.1,0-0.1-0.2-0.2-0.1c-0.1,0-0.2,0.1-0.2,0.2C68.6,409.6,68.7,409.6,68.8,409.6 M45.5,410.6
		c0-0.1-0.1-0.2-0.1-0.2c-0.1,0.1-0.2,0.1-0.2,0.2c0,0.1,0.1,0.2,0.1,0.2C45.4,410.7,45.4,410.7,45.5,410.6 M34.9,411.8
		c-0.1,0.1-0.2,0.1-0.2,0.2c0,0.2,0.1,0.3,0.1,0.4c0.1-0.1,0.2-0.1,0.2-0.2C35,412.1,35,411.9,34.9,411.8 M155.6,411.9
		c0-0.1,0-0.2,0-0.2c-0.1,0-0.2,0-0.2-0.1c0,0.1,0,0.2,0.1,0.3C155.5,411.9,155.5,411.9,155.6,411.9 M32.9,413.4l-0.2,0
		c0,0.1,0,0.2,0.1,0.2c0.1,0,0.1,0,0.2,0C33,413.6,32.9,413.5,32.9,413.4 M61.2,415.8c-0.1,0-0.1,0-0.2,0c0,0.1,0,0.2,0.1,0.2
		c0.1,0,0.1,0,0.2,0C61.3,415.9,61.2,415.8,61.2,415.8 M53.2,420.5c-0.1,0-0.1-0.1-0.2-0.1c-0.1,0-0.1,0.1-0.2,0.1
		c0.1,0,0.1,0.1,0.2,0.1C53.1,420.6,53.1,420.5,53.2,420.5 M244.7,210.7c-0.1-0.2-0.1-0.4-0.3-0.5c-0.1-0.1-0.3,0-0.5,0.1
		c0.1,0.2,0.2,0.4,0.3,0.5C244.4,210.8,244.6,210.7,244.7,210.7 M434.4,297.4c-0.2,0-0.3-0.1-0.5-0.1c0,0.1,0,0.3,0,0.4
		c0,0,0.2,0.1,0.2,0C434.3,297.7,434.3,297.5,434.4,297.4 M415.7,266c-0.1,0-0.1-0.1-0.2-0.1c0,0.1-0.1,0.2-0.1,0.2
		c0.1,0,0.2,0.1,0.3,0.1V266z M530.7,298c-0.1,0-0.3-0.1-0.4-0.1c0,0-0.1,0.1-0.1,0.2c0.1,0,0.3,0.1,0.4,0.1
		C530.6,298.2,530.6,298.1,530.7,298 M237.6,299.4c-0.1-0.1-0.1-0.2-0.2-0.3c0,0-0.2,0-0.2,0c-0.1,0.1-0.1,0.2-0.1,0.4
		C237.3,299.4,237.5,299.4,237.6,299.4 M279.8,200.6c-0.1,0-0.2,0.1-0.2,0.2c0,0.1,0,0.2,0,0.2c0.1,0,0.2-0.1,0.2-0.1
		C279.8,200.8,279.8,200.7,279.8,200.6 M62.2,412.3c0-0.1-0.1-0.2-0.1-0.2c-0.1,0.1-0.3,0.2-0.4,0.3c0,0,0.1,0.1,0.1,0.2
		C62,412.4,62.1,412.3,62.2,412.3 M307.8,200.2c0,0.1-0.1,0.1-0.1,0.2c0.1,0,0.2,0.1,0.2,0.1c0.1,0,0.1-0.1,0.1-0.2
		C308,200.2,307.9,200.2,307.8,200.2 M540,300.3c0.1,0.1,0.3,0.2,0.4,0.2c0.1-0.1,0.2-0.3,0.2-0.4c0-0.1-0.2-0.2-0.4-0.3
		C540.1,299.9,540.1,300.1,540,300.3 M365.7,269.1c-0.1-0.1-0.1-0.3-0.2-0.4c-0.1,0.1-0.2,0.1-0.3,0.2c0,0,0,0.2,0.1,0.2
		C365.4,269.1,365.5,269.1,365.7,269.1 M234.3,410c0,0.1-0.1,0.1-0.1,0.2c0.1,0,0.2,0.1,0.2,0.1c0.1-0.1,0.1-0.2,0.2-0.3
		C234.5,410,234.4,410,234.3,410 M509.2,269.4c0-0.1-0.1-0.1-0.1-0.2c-0.1,0.1-0.2,0.2-0.2,0.3c0,0,0.1,0.1,0.1,0.2
		C509,269.6,509.1,269.5,509.2,269.4 M533.5,216.5c-0.1-0.1-0.3-0.2-0.4-0.1c-0.1,0-0.2,0.2-0.2,0.4c0.2,0.1,0.3,0.2,0.5,0.2
		C533.4,216.9,533.4,216.7,533.5,216.5 M522,269c0,0.1,0,0.1,0,0.2c0.1,0,0.2-0.1,0.3-0.1c0-0.1-0.1-0.2-0.1-0.2
		C522.2,268.9,522.1,268.9,522,269 M297.1,197.9c0,0.1-0.1,0.1-0.1,0.2c0,0.1,0.1,0.1,0.1,0.2c0.1-0.1,0.1-0.2,0.2-0.3
		C297.3,198,297.2,197.9,297.1,197.9 M497.5,301.9l-0.4-0.2c0,0.1-0.1,0.3-0.1,0.4c0,0,0.2,0.1,0.2,0.1
		C497.3,302.1,497.4,302,497.5,301.9 M356,302.3c0.1,0,0.1-0.1,0.2-0.1c0-0.1-0.1-0.2-0.1-0.2c-0.1,0.1-0.2,0.1-0.3,0.2
		C355.8,302.3,355.9,302.3,356,302.3 M287.5,192.2c-0.1-0.2-0.1-0.3-0.2-0.5c-0.2,0.1-0.3,0.1-0.5,0.2c0.1,0.2,0.1,0.4,0.2,0.5
		C287.1,192.4,287.3,192.2,287.5,192.2 M335.2,302.7c-0.1,0.2-0.2,0.3-0.1,0.5c0,0.1,0.3,0.1,0.4,0.2c0.1-0.1,0.2-0.3,0.1-0.4
		C335.6,302.9,335.4,302.8,335.2,302.7 M500,184.4c-0.1-0.1-0.2-0.2-0.3-0.3c0,0-0.2,0.2-0.1,0.2c0.1,0.1,0.2,0.2,0.3,0.3
		C499.9,184.6,499.9,184.5,500,184.4 M549.5,166.6c-0.1,0.1-0.2,0.2-0.2,0.4c0.1,0.1,0.2,0.1,0.4,0.2c0,0,0.1-0.1,0.1-0.2
		C549.7,166.8,549.6,166.7,549.5,166.6 M62.4,403.3c-0.1-0.1-0.2-0.2-0.3-0.3c0,0-0.2,0-0.2,0c0,0.1,0,0.2,0,0.4
		C62.1,403.3,62.2,403.3,62.4,403.3 M255.2,292.3c-0.1-0.1-0.1-0.3-0.2-0.4c0,0-0.2,0.1-0.2,0.1c0,0.1,0.1,0.3,0.1,0.4
		C255,292.3,255.1,292.3,255.2,292.3 M272.3,273c-0.1,0-0.2-0.1-0.3-0.1c0,0-0.2,0.1-0.2,0.2c0,0.1,0.1,0.2,0.2,0.3
		C272.1,273.2,272.2,273.1,272.3,273 M553.1,401c-0.1-0.1-0.2-0.2-0.3-0.3c0,0-0.2,0-0.2,0.1c0,0.1,0,0.2,0.1,0.2
		C552.8,401.1,553,401,553.1,401 M423.3,303.8c0,0-0.1-0.1-0.1-0.2c-0.1,0.1-0.2,0.2-0.3,0.3c0,0,0.1,0.1,0.1,0.2
		C423.1,304,423.2,303.9,423.3,303.8 M55.5,398.5c0.1,0.1,0.2,0.2,0.4,0.3c0.1,0,0.2,0,0.2-0.1c0-0.1-0.1-0.2-0.1-0.4
		C55.8,398.4,55.6,398.5,55.5,398.5 M313.3,397.4c-0.1-0.1-0.2-0.2-0.4-0.2c-0.1,0.1-0.1,0.2-0.2,0.3c0,0,0.1,0.1,0.2,0.1
		C313.1,397.6,313.2,397.5,313.3,397.4 M362,259.1c-0.1,0-0.1,0-0.2,0c0.1,0.1,0.1,0.2,0.2,0.4c0.1,0,0.1-0.1,0.2-0.1
		C362.1,259.2,362.1,259.1,362,259.1 M220.7,390.9c0,0.1,0.1,0.2,0.1,0.2c0.1,0,0.2,0,0.2,0c-0.1-0.1-0.1-0.2-0.2-0.3
		C220.8,390.9,220.7,390.9,220.7,390.9 M126,258.8c0,0.1-0.1,0.2-0.1,0.2c0,0.1,0.1,0.1,0.2,0.1c0-0.1,0.1-0.2,0.1-0.2
		C126.2,258.8,126.1,258.8,126,258.8 M338.4,306.1c0.2-0.1,0.3-0.2,0.4-0.2c-0.1,0-0.2-0.1-0.2-0.1
		C338.5,305.9,338.4,306,338.4,306.1 M226.8,386.7h-0.2c0,0.2,0,0.3,0,0.5c0,0,0.2,0,0.2,0C226.8,387.1,226.8,386.9,226.8,386.7
		 M239.9,290.8c-0.1,0-0.1,0-0.2,0l0.1,0.3c0.1,0,0.1-0.1,0.2-0.1C239.9,290.9,239.9,290.8,239.9,290.8 M142.4,310.3
		c-0.1-0.1-0.1-0.1-0.2-0.2c-0.1,0.1-0.1,0.2-0.2,0.4c0.1,0,0.2,0.1,0.2,0C142.4,310.4,142.4,310.3,142.4,310.3 M231.9,290.5
		c-0.1,0.1-0.2,0.3-0.2,0.4c0,0,0.1,0.2,0.2,0.2c0.1-0.1,0.2-0.2,0.4-0.3C232.1,290.7,232,290.6,231.9,290.5 M553.1,380.8
		c-0.1,0.1-0.2,0.2-0.2,0.3c0,0,0.1,0.1,0.2,0.1c0.1-0.1,0.2-0.2,0.3-0.3C553.3,380.9,553.1,380.8,553.1,380.8 M378.8,380.8
		c0,0.1,0,0.1,0,0.2c0.1,0,0.2-0.1,0.3-0.1c0-0.1-0.1-0.1-0.1-0.2C379,380.7,378.9,380.8,378.8,380.8 M226.2,380.1
		c0.1,0.1,0.2,0.2,0.4,0.3c0-0.1,0.1-0.2,0.1-0.2c-0.1-0.1-0.2-0.2-0.3-0.3C226.4,380,226.3,380.1,226.2,380.1 M540.2,224.8
		c-0.1-0.1-0.1-0.3-0.2-0.4c0,0-0.2,0-0.2,0c-0.1,0.1-0.1,0.3-0.1,0.4C539.9,224.8,540.1,224.8,540.2,224.8 M223.5,312.3
		c-0.1-0.1-0.3-0.1-0.4-0.2c0,0-0.1,0.2-0.1,0.2c0.1,0.1,0.2,0.2,0.3,0.3C223.4,312.5,223.5,312.4,223.5,312.3 M320.4,371.9
		c0-0.1-0.1-0.1-0.1-0.2c-0.1,0.1-0.1,0.2-0.2,0.3c0,0,0.1,0.1,0.1,0.1L320.4,371.9z M525.2,369.6c-0.1-0.1-0.1-0.1-0.2-0.2
		c-0.1,0.1-0.2,0.2-0.3,0.3c0.1,0,0.2,0.1,0.3,0.1C525.1,369.7,525.2,369.6,525.2,369.6 M511.2,289.6c0,0.1-0.1,0.1-0.1,0.2l0.2,0.1
		c0-0.1,0.1-0.1,0.1-0.2C511.4,289.7,511.3,289.7,511.2,289.6 M509.1,229c0-0.1,0-0.1,0-0.2c-0.1,0-0.2,0.1-0.3,0.1
		c0,0.1,0.1,0.1,0.1,0.2C508.9,229,509,229,509.1,229 M497.2,256.8c-0.1-0.1-0.2-0.2-0.4-0.3c0,0-0.2,0.1-0.2,0.2
		c0,0.2,0.1,0.3,0.2,0.4C497,257,497.1,256.9,497.2,256.8 M222.7,368.7c-0.1-0.1-0.1-0.3-0.2-0.4c-0.1,0-0.3,0-0.5,0.1
		c0.1,0.2,0.2,0.4,0.3,0.5C222.4,368.9,222.6,368.8,222.7,368.7 M312.7,368.5c0.1-0.1,0.3-0.2,0.4-0.3c0-0.1,0-0.3-0.1-0.4
		c-0.1,0.1-0.3,0.1-0.4,0.2C312.5,368.2,312.6,368.3,312.7,368.5 M240.8,368.4c0-0.1-0.1-0.1-0.1-0.2c-0.1,0.1-0.2,0.2-0.3,0.3
		c0,0,0.1,0.1,0.1,0.2C240.6,368.6,240.7,368.5,240.8,368.4 M369.3,279.4l-0.5-0.2c-0.1,0.1-0.1,0.3-0.2,0.4
		c0.2,0.1,0.3,0.2,0.5,0.2C369.2,279.8,369.3,279.5,369.3,279.4 M545.7,231.7c-0.1-0.1-0.3-0.2-0.4-0.2c-0.1,0-0.2,0.1-0.2,0.1
		c0.1,0.1,0.1,0.3,0.2,0.3C545.4,231.9,545.5,231.8,545.7,231.7 M263.8,289.8c0-0.1-0.1-0.2-0.1-0.2c-0.1,0.1-0.2,0.2-0.2,0.4
		c0,0.1,0.1,0.2,0.1,0.2C263.7,290,263.7,289.9,263.8,289.8 M410.2,278.9c-0.1,0.1-0.3,0.2-0.4,0.2c0,0.1,0.1,0.2,0.1,0.2
		c0.1-0.1,0.3-0.2,0.4-0.2C410.3,279,410.3,278.9,410.2,278.9 M552.7,279.2c0-0.1,0-0.2,0-0.2c-0.1-0.1-0.2,0-0.2-0.1
		c0,0.1,0,0.3,0,0.4C552.6,279.3,552.6,279.2,552.7,279.2 M556,233.4c-0.1-0.1-0.2-0.2-0.4-0.2c-0.1,0-0.2,0.1-0.2,0.1
		c0.1,0.1,0.2,0.3,0.2,0.4C555.7,233.6,555.8,233.5,556,233.4 M302.8,357.9c-0.1-0.1-0.2-0.2-0.4-0.3c0,0-0.2,0.1-0.1,0.2
		c0.1,0.1,0.2,0.2,0.3,0.4C302.6,358.1,302.7,358,302.8,357.9 M555.4,356.4c0-0.1,0-0.2-0.1-0.2c-0.1,0-0.2,0-0.3,0
		c0,0.1,0.1,0.2,0.1,0.3C555.3,356.5,555.3,356.4,555.4,356.4 M88.6,317.6c0.1,0,0.1,0.1,0.2,0.1c0-0.1,0.1-0.2,0.1-0.2
		c0-0.1-0.1-0.1-0.2-0.1C88.6,317.5,88.6,317.5,88.6,317.6 M295.8,318.5c0.1-0.1,0.1-0.3,0.2-0.4c-0.2-0.1-0.3-0.2-0.5-0.2
		c-0.1,0-0.2,0.3-0.2,0.4C295.5,318.4,295.6,318.4,295.8,318.5 M544.3,318.1c0,0-0.1-0.1-0.1-0.1c-0.1,0-0.1,0.1-0.2,0.1
		c0.1,0.1,0.2,0.2,0.3,0.2C544.3,318.2,544.3,318.2,544.3,318.1 M388.9,239.3c-0.1,0-0.1,0-0.2,0c0,0.1,0.1,0.2,0.1,0.3
		c0.1,0,0.1-0.1,0.2-0.1C389,239.5,388.9,239.4,388.9,239.3 M402.3,288.1c0-0.2-0.1-0.3-0.1-0.5c-0.1,0-0.2,0-0.2,0.1
		c-0.1,0.1-0.1,0.3-0.1,0.5C402,288.2,402.1,288.2,402.3,288.1 M387.8,350.6c0,0.1-0.1,0.1-0.1,0.2c0.1,0,0.2,0.1,0.3,0.1
		c0-0.1,0.1-0.2,0-0.2C388,350.7,387.9,350.7,387.8,350.6 M81.5,350.4c0-0.1,0-0.2,0-0.3c-0.1,0.1-0.3,0.1-0.4,0.2
		c0,0.1,0.1,0.1,0.1,0.2C81.3,350.5,81.4,350.4,81.5,350.4 M95.4,322.5c0-0.1,0-0.2,0-0.2c-0.2,0-0.3,0-0.5,0c0,0.1,0,0.2,0,0.2
		C95.1,322.6,95.3,322.6,95.4,322.5 M508.4,287.6c0-0.1-0.1-0.2-0.1-0.2c-0.1,0-0.2,0-0.2,0.1c0,0,0,0.1,0.1,0.2
		C508.3,287.6,508.3,287.6,508.4,287.6 M379.1,287.2c-0.3-0.2-0.4-0.3-0.5-0.4c-0.1,0.2-0.2,0.3-0.3,0.5
		C378.6,287.3,378.8,287.2,379.1,287.2 M177.2,254.1l0-0.2l-0.2,0.1L177.2,254.1z M256.4,253.5c0.1,0,0.2-0.1,0.3-0.1
		c-0.1,0-0.1-0.1-0.2,0C256.5,253.4,256.4,253.5,256.4,253.5 M505.7,242.1c0.1-0.1,0.1-0.3,0.2-0.4c0,0-0.1-0.1-0.2-0.1
		c-0.1,0.1-0.1,0.3-0.1,0.4C505.5,242,505.6,242.1,505.7,242.1 M236.5,287.3c0-0.1,0-0.1,0-0.2c-0.1,0-0.2,0.1-0.3,0.1
		c0,0.1,0.1,0.1,0.1,0.2C236.4,287.4,236.4,287.3,236.5,287.3 M99.8,342.1c-0.1-0.1-0.3-0.1-0.4-0.2c-0.1,0.2-0.2,0.3-0.2,0.5
		c0,0.1,0.3,0.1,0.4,0.2C99.7,342.5,99.7,342.3,99.8,342.1 M535.7,216.1c0,0.1,0,0.2,0,0.2c0.1,0,0.2,0,0.2,0c0-0.1,0-0.2,0-0.3
		C535.9,216,535.8,216.1,535.7,216.1 M323,326c-0.2,0-0.3-0.1-0.4-0.1c0,0.1,0.1,0.2,0.1,0.2C322.8,326.1,322.9,326,323,326
		 M245.7,327.8c0.1-0.1,0.2-0.3,0.2-0.4c0-0.1-0.1-0.2-0.1-0.2c-0.1,0.1-0.3,0.1-0.3,0.2C245.6,327.5,245.6,327.7,245.7,327.8
		 M135.4,334c-0.1-0.1-0.2-0.2-0.4-0.2c0,0-0.1,0.1-0.2,0.2c0.1,0.1,0.2,0.2,0.4,0.3C135.3,334.2,135.4,334,135.4,334 M397.7,329
		c-0.1-0.1-0.2-0.2-0.4-0.2c0,0-0.2,0.1-0.1,0.2c0.1,0.1,0.2,0.2,0.2,0.4C397.6,329.2,397.7,329.1,397.7,329 M423.9,285.4
		c-0.2-0.1-0.3-0.1-0.4-0.1c0,0,0,0.1,0,0.1C423.6,285.4,423.6,285.4,423.9,285.4 M391,330.8c0.1,0,0.2-0.1,0.2-0.1
		c0-0.1-0.1-0.2-0.1-0.2c-0.1,0.1-0.2,0.1-0.3,0.2C390.9,330.7,391,330.8,391,330.8 M121.6,331.9c-0.1-0.1-0.1-0.4-0.3-0.4
		c-0.1,0-0.3,0.1-0.5,0.2c0.1,0.2,0.2,0.4,0.4,0.6C121.4,332.1,121.5,332,121.6,331.9 M226.6,331.4c-0.1,0.1-0.4,0.2-0.4,0.3
		c0,0.1,0.1,0.3,0.2,0.5c0.2-0.1,0.4-0.2,0.5-0.4C226.8,331.7,226.7,331.5,226.6,331.4 M73,333.8c-0.1-0.1-0.1-0.4-0.2-0.4
		c-0.1,0-0.3,0.1-0.5,0.2c0.1,0.2,0.2,0.4,0.3,0.5C72.7,334.1,72.9,334,73,333.8 M493.5,245.3c-0.1,0.5-0.2,0.7-0.1,0.8
		c0.2,0.2,0.5,0.3,0.7,0.4C494,246.1,493.8,245.8,493.5,245.3 M107.7,333.9c-0.2-0.2-0.4-0.4-0.6-0.6c0,0-0.3,0.2-0.4,0.3
		c0.1,0.2,0.3,0.4,0.5,0.5C107.3,334.2,107.5,334,107.7,333.9 M536.5,246.9c-0.7,0.3-1,0.4-1.2,0.5c0.1,0.1,0.2,0.2,0.3,0.3
		C535.8,247.6,535.9,247.4,536.5,246.9 M550.9,284.4c-0.1,0-0.3,0-0.5,0c0.1,0.3,0.1,0.6,0.2,0.9c0,0,0.2,0,0.2,0
		C550.9,285,550.9,284.7,550.9,284.4 M545,250.1c-0.1-0.2-0.1-0.4-0.2-0.5c-0.1,0.1-0.3,0.2-0.4,0.3c-0.1,0.1,0,0.3-0.1,0.4
		C544.7,250.2,544.9,250.1,545,250.1 M110,287.1c0-0.1,0-0.2-0.1-0.4c-0.3,0.1-0.6,0.1-0.9,0.2c0,0.1,0,0.2,0,0.3
		C109.4,287.2,109.7,287.2,110,287.1 M116.4,325.7c-0.1-0.1-0.1-0.3-0.3-0.4c-0.1-0.1-0.3,0-0.4,0c0.1,0.1,0.1,0.4,0.2,0.4
		C116,325.9,116.2,325.8,116.4,325.7 M84.8,340.1c-0.1,0.1-0.3,0.1-0.4,0.2c0.1,0.1,0.2,0.3,0.3,0.4c0.2-0.1,0.4-0.2,0.5-0.4
		C85.1,340.3,85,340.2,84.8,340.1 M514.3,283.7c0.2-0.1,0.4-0.1,0.4-0.2c0.1-0.1,0-0.3-0.1-0.4c-0.2,0.1-0.4,0.2-0.6,0.2
		C514.2,283.4,514.2,283.5,514.3,283.7 M240.4,323.5c-0.1-0.1-0.1-0.3-0.2-0.4c0,0-0.2,0-0.2,0.1c0,0.2,0,0.3,0,0.5
		C240.1,323.7,240.2,323.6,240.4,323.5 M424,252.5c-0.4-0.1-0.5-0.2-0.7-0.2c-0.1,0-0.1,0.2-0.1,0.4
		C423.5,252.7,423.7,252.6,424,252.5 M488.2,252.9c-0.2,0.1-0.4,0.1-0.4,0.2c-0.1,0.1,0.1,0.3,0.1,0.5c0.2-0.1,0.4-0.1,0.4-0.2
		C488.4,253.3,488.3,253.1,488.2,252.9 M315.5,345.6c0-0.1,0-0.3-0.1-0.4c-0.1-0.1-0.3,0-0.4-0.1c0,0.1,0,0.3,0.1,0.4
		C315.2,345.7,315.4,345.6,315.5,345.6 M68,346.9c-0.1-0.1-0.2-0.4-0.3-0.4c-0.1,0-0.3,0.1-0.5,0.2c0.1,0.2,0.3,0.3,0.4,0.5
		C67.8,347.2,67.9,347.1,68,346.9 M242.3,346.5l-0.7,0.7c0.4,0.1,0.7,0.1,1.1,0.2c0.1,0,0.1-0.1,0.2-0.1
		C242.7,347,242.5,346.7,242.3,346.5 M308.1,347.5c0.1-0.1,0.4-0.1,0.4-0.2c0.1-0.1,0-0.3,0-0.5c-0.2,0.1-0.4,0.1-0.5,0.2
		C307.9,347.1,308.1,347.4,308.1,347.5 M307.5,349.3c-0.1-0.1-0.1-0.4-0.2-0.4c-0.1,0-0.3,0.1-0.4,0.1c0.1,0.2,0.1,0.4,0.2,0.4
		C307.1,349.5,307.3,349.3,307.5,349.3 M187.9,241.4c0.2,0.1,0.4,0.2,0.6,0.3c0.1-0.3,0.2-0.7,0.3-1l-0.3-0.1
		C188.3,240.8,188.1,241.1,187.9,241.4 M69.2,351.7c-0.1-0.2-0.2-0.4-0.3-0.5c-0.2,0.2-0.4,0.3-0.6,0.5c0,0,0.2,0.4,0.3,0.4
		C68.7,352,69,351.8,69.2,351.7 M338.2,318.5c-0.1-0.1-0.1-0.3-0.2-0.4c-0.1-0.1-0.3,0-0.5,0c0.1,0.2,0.1,0.4,0.3,0.5
		C337.8,318.6,338,318.5,338.2,318.5 M548,238.5c-0.1,0.1-0.3,0.2-0.3,0.3c0,0.1,0.1,0.3,0.2,0.4c0.2-0.1,0.3-0.3,0.5-0.4
		C548.2,238.7,548.1,238.6,548,238.5 M491.4,352.9c0.1-0.1,0.1-0.3,0.2-0.4c0,0-0.2-0.2-0.2-0.1c-0.1,0.1-0.2,0.2-0.3,0.3
		C491.2,352.7,491.3,352.8,491.4,352.9 M84.5,356.2c0,0.1-0.1,0.3-0.1,0.4c0,0,0.2,0.1,0.2,0.1c0.1-0.1,0.2-0.2,0.4-0.4
		C84.8,356.4,84.6,356.3,84.5,356.2 M307.2,357.4c-0.1,0.1-0.4,0.1-0.4,0.2c0,0.1,0.1,0.3,0.1,0.5c0.2-0.1,0.4-0.2,0.6-0.4
		C307.5,357.6,307.4,357.5,307.2,357.4 M233.8,289.5c-0.1,0.1-0.2,0.2-0.3,0.3c0.1,0,0.2,0.1,0.2,0.1c0.1-0.1,0.2-0.2,0.3-0.3
		C234,289.6,233.9,289.5,233.8,289.5 M246.9,256c-0.4-0.2-0.7-0.3-0.7-0.3c-0.2,0.2-0.3,0.5-0.4,0.7
		C246.1,256.3,246.4,256.2,246.9,256 M548.3,281.5c0.2-0.1,0.3-0.1,0.5-0.2c-0.2-0.1-0.3-0.3-0.5-0.4c-0.1,0-0.3,0.2-0.4,0.3
		C548,281.3,548.2,281.4,548.3,281.5 M380.6,360.5c-0.2-0.2-0.4-0.3-0.5-0.3c-0.1,0-0.2,0.2-0.3,0.3H380.6z M284.8,314.2
		c0-0.1,0.1-0.2,0.1-0.2c-0.1,0-0.3,0-0.4,0c0,0,0,0.2-0.1,0.2C284.5,314.2,284.6,314.2,284.8,314.2 M227.3,365.1
		c0,0.1-0.1,0.2-0.1,0.2c0.1,0.1,0.2,0.2,0.3,0.3c0-0.1,0.1-0.2,0.1-0.2C227.5,365.3,227.4,365.2,227.3,365.1 M547.3,231.8
		c0.2-0.1,0.4-0.1,0.5-0.2c0.1-0.1-0.1-0.3-0.1-0.5c-0.2,0.1-0.4,0.2-0.6,0.2C547.1,231.5,547.2,231.6,547.3,231.8 M63.5,368
		c0.1-0.1,0.4-0.1,0.4-0.2c0-0.2-0.1-0.3-0.2-0.5c-0.2,0.1-0.3,0.2-0.5,0.3C63.3,367.8,63.4,367.9,63.5,368 M342.3,229.9
		c-0.1,0.1-0.1,0.3-0.2,0.4c0.1,0.1,0.3,0.2,0.4,0.2c0.1,0,0.1-0.3,0.2-0.4C342.6,230,342.5,229.9,342.3,229.9 M320.3,369.4
		c-0.1-0.2-0.1-0.4-0.2-0.4c-0.1-0.1-0.3,0.1-0.5,0.1c0.1,0.2,0.2,0.4,0.3,0.6C320,369.6,320.1,369.5,320.3,369.4 M498.1,276.6
		c-0.6-0.3-0.8-0.4-0.8-0.4c-0.1,0.1-0.3,0.2-0.3,0.4c0,0.1,0.2,0.3,0.3,0.3C497.5,276.9,497.7,276.8,498.1,276.6 M101.6,275.7
		c-0.1,0.1-0.2,0.2-0.3,0.3c0.1,0,0.2,0.1,0.2,0.1c0.1-0.1,0.2-0.2,0.3-0.3C101.7,275.8,101.7,275.7,101.6,275.7 M73.1,382.2
		c-0.2-0.2-0.3-0.4-0.5-0.5c-0.1,0-0.3,0.1-0.4,0.2c0.1,0.2,0.3,0.4,0.5,0.6C72.6,382.5,72.9,382.3,73.1,382.2 M389.3,308.2
		c0.2,0.2,0.3,0.5,0.4,0.5c0.2,0,0.3-0.2,0.4-0.3C389.9,308.3,389.6,308.3,389.3,308.2 M253.3,275.9
		C253.2,275.6,253.3,275.8,253.3,275.9C253.3,275.8,253.3,275.6,253.3,275.9 M77.2,385.9c0.1-0.1,0.4-0.1,0.4-0.2
		c0-0.1-0.1-0.3-0.1-0.4c-0.1,0.1-0.4,0.1-0.4,0.2C77,385.5,77.2,385.7,77.2,385.9 M122.5,308.9c-0.1-0.1-0.2-0.3-0.3-0.3
		c-0.1,0-0.3,0.2-0.4,0.3c0.1,0.1,0.2,0.2,0.3,0.2C122.2,309.1,122.4,309,122.5,308.9 M540.3,222.3c-0.1-0.2-0.1-0.4-0.2-0.5
		c-0.2,0.1-0.3,0.1-0.4,0.2c-0.1,0.1,0,0.3,0,0.4C539.9,222.4,540.1,222.3,540.3,222.3 M237.4,386.6c-0.2-0.1-0.3-0.3-0.4-0.3
		c-0.1,0-0.2,0.1-0.4,0.2c0.1,0.1,0.3,0.3,0.4,0.3C237.1,386.8,237.2,386.7,237.4,386.6 M552,387.2c0.1,0,0.3,0.1,0.4,0.1
		c0-0.3,0-0.6,0.1-0.8c-0.1,0-0.1,0-0.2,0C552.2,386.7,552.1,387,552,387.2 M48.9,390.4c-0.1-0.2-0.1-0.3-0.2-0.5
		c-0.2,0.1-0.4,0.1-0.5,0.2c0,0.1,0.1,0.4,0.2,0.4C48.6,390.6,48.7,390.5,48.9,390.4 M41,397.6c0-0.1,0.1-0.2,0.1-0.2
		c-0.1-0.1-0.2-0.1-0.3-0.1l-0.1,0.2C40.8,397.6,40.9,397.6,41,397.6 M521.5,261.4c0,0.1,0,0.3,0,0.4c0.3,0,0.6-0.1,0.9-0.2
		c0,0,0-0.2,0-0.3H521.5z M546.7,220.8c-0.1,0.1-0.3,0.3-0.2,0.4c0.1,0.2,0.2,0.3,0.4,0.5c0.1-0.2,0.2-0.3,0.2-0.5
		C547,221.1,546.8,220.9,546.7,220.8 M316.3,304c-0.1-0.1-0.3-0.2-0.4-0.1c-0.1,0.1-0.2,0.3-0.2,0.4c0.1,0.1,0.3,0.2,0.4,0.2
		C316.2,304.3,316.2,304.1,316.3,304 M230.2,292.3c-0.1,0.1-0.2,0.2-0.3,0.3c0,0,0.1,0.1,0.2,0.2c0.1-0.1,0.2-0.2,0.3-0.3
		C230.4,292.4,230.3,292.3,230.2,292.3 M554.7,187.4c-0.1-0.1-0.3-0.2-0.4-0.2c-0.1,0.1-0.2,0.3-0.2,0.4c0.2,0.1,0.3,0.2,0.5,0.2
		C554.6,187.8,554.7,187.6,554.7,187.4 M39.1,405.2c-0.1-0.2-0.1-0.4-0.2-0.4c-0.1,0-0.3,0.1-0.5,0.1c0.1,0.2,0.1,0.4,0.2,0.4
		C38.7,405.4,38.9,405.3,39.1,405.2 M262,191.7c-0.1,0.2-0.2,0.4-0.1,0.5c0.1,0.1,0.3,0.2,0.4,0.3c0.1-0.2,0.2-0.4,0.1-0.5
		C262.4,191.8,262.1,191.8,262,191.7 M387.6,406.2c0.1-0.1,0.3-0.2,0.3-0.4c0-0.1-0.1-0.3-0.2-0.4c-0.1,0.1-0.3,0.3-0.3,0.4
		C387.4,405.9,387.5,406.1,387.6,406.2 M253.1,302c-0.1-0.1-0.3-0.2-0.4-0.2c0,0.1-0.1,0.2-0.1,0.3c0.1,0.1,0.2,0.3,0.3,0.4
		C252.9,302.3,253,302.2,253.1,302 M228.7,406.6c-0.1,0.1-0.2,0.2-0.2,0.3c0,0,0.1,0.2,0.1,0.2c0.1,0,0.3-0.1,0.4-0.2
		C228.9,406.8,228.8,406.7,228.7,406.6 M323.1,408.6c0.1-0.1,0.3-0.2,0.4-0.2c-0.1,0-0.1-0.1-0.2-0.1c-0.1,0-0.3,0.1-0.4,0.2
		C323,408.5,323,408.6,323.1,408.6 M397.1,409c-0.1-0.1-0.1-0.3-0.2-0.4c-0.1,0.1-0.3,0.2-0.4,0.3c0.1,0.1,0.2,0.3,0.3,0.4
		C396.8,409.3,397,409.1,397.1,409 M386.2,410c-0.1-0.1-0.1-0.3-0.2-0.5c-0.1,0.1-0.3,0.1-0.4,0.2c0.1,0.2,0.2,0.4,0.3,0.6
		C386,410.2,386.1,410.1,386.2,410 M373.2,264.7c0-0.1-0.1-0.3-0.2-0.5c-0.1,0.1-0.4,0.1-0.4,0.2c0,0.2,0.1,0.5,0.2,0.7
		C373,264.9,373.1,264.8,373.2,264.7 M494.2,202c-0.3,0.2-0.4,0.2-0.6,0.3c0.2,0.2,0.3,0.4,0.5,0.6c0,0,0.4-0.2,0.4-0.3
		C494.4,202.4,494.3,202.2,494.2,202 M503.6,300.6c0-0.1,0.2-0.2,0.1-0.2c0-0.1-0.1-0.1-0.2-0.2c-0.1,0.1-0.1,0.2-0.2,0.3
		C503.5,300.5,503.5,300.6,503.6,300.6 M429.2,299.7c-0.1-0.2-0.1-0.3-0.2-0.5c-0.1,0.1-0.4,0.2-0.4,0.2c0,0.2,0.1,0.3,0.2,0.5
		C428.9,299.9,429.1,299.8,429.2,299.7 M305.9,206.9c0.1-0.1,0.3-0.1,0.4-0.2c0.1-0.1-0.1-0.3-0.1-0.4c-0.2,0.1-0.4,0.2-0.6,0.3
		C305.8,206.6,305.8,206.8,305.9,206.9 M233.8,412.8c-0.3-0.2-0.5-0.4-0.6-0.3c-0.2,0.1-0.4,0.3-0.6,0.5c0.2,0.1,0.4,0.3,0.5,0.2
		C233.3,413.2,233.5,413,233.8,412.8 M530.8,210c-0.1-0.1-0.1-0.4-0.2-0.4c-0.1,0-0.3,0.1-0.4,0.1c0.1,0.1,0.1,0.3,0.2,0.4
		C530.5,210.2,530.7,210.1,530.8,210 M432.2,297.8c-0.1-0.1-0.2-0.2-0.4-0.3c0,0-0.2,0.1-0.2,0.1c0.1,0.1,0.1,0.3,0.2,0.4
		C432,298,432.1,297.9,432.2,297.8 M300.6,212.4c-0.1,0.1-0.2,0.3-0.1,0.4c0,0.1,0.2,0.1,0.4,0.2c0.1-0.1,0.1-0.3,0.2-0.4
		C300.9,212.6,300.8,212.5,300.6,212.4 M484,294.7c-0.1,0.1-0.2,0.2-0.3,0.3c0.1,0,0.2,0.2,0.2,0.1c0.1-0.1,0.2-0.2,0.3-0.3
		C484.1,294.8,484.1,294.7,484,294.7 M545.6,215.4c-0.1,0.2-0.2,0.4-0.2,0.5c0,0.1,0.3,0.2,0.4,0.2c0.1-0.2,0.2-0.4,0.2-0.5
		C546,215.5,545.7,215.5,545.6,215.4 M556.2,295.3c0.1-0.1,0.1-0.2,0.2-0.4c-0.3-0.1-0.6-0.2-0.9-0.3c0,0.1-0.1,0.2-0.1,0.2
		C555.6,295,555.9,295.2,556.2,295.3 M523,216.2c-0.1-0.1-0.2-0.2-0.4-0.3c-0.1,0-0.2,0.2-0.3,0.2c0.1,0.1,0.3,0.2,0.4,0.3
		C522.9,216.4,522.9,216.3,523,216.2 M244.8,267.9c-0.1-0.1-0.1-0.3-0.2-0.4c-0.1,0.1-0.3,0.1-0.4,0.2c0,0,0,0.2,0.1,0.2
		C244.4,268,244.6,268,244.8,267.9 M278.7,203c-0.1-0.1-0.2-0.4-0.3-0.3c-0.2,0.1-0.4,0.2-0.6,0.4c0,0,0.1,0.3,0.2,0.4
		C278.2,203.3,278.4,203.1,278.7,203 M344.4,218c0.1-0.1,0.3-0.2,0.4-0.4c-0.3-0.3-0.6-0.6-0.9-0.9c-0.1,0.1-0.2,0.2-0.4,0.3
		L344.4,218z M336.7,294.8c-0.1-0.2-0.2-0.4-0.3-0.5c-0.2,0.1-0.4,0.3-0.6,0.4c0,0,0.1,0.3,0.2,0.4
		C336.3,295,336.5,294.9,336.7,294.8 M268.3,195.1c0.1-0.2,0.3-0.5,0.3-0.7c0-0.1-0.2-0.2-0.3-0.3c-0.2,0.2-0.3,0.4-0.4,0.6
		C267.9,194.8,268.1,194.9,268.3,195.1 M374.4,302.7c-0.2-0.3-0.4-0.5-0.5-0.7c-0.2,0.2-0.4,0.4-0.4,0.7c0,0.2,0.3,0.4,0.4,0.6
		C374.1,303.1,374.2,302.9,374.4,302.7 M460,303.1c0.3,0.1,0.5,0.3,0.6,0.3c0.2-0.1,0.3-0.4,0.5-0.5c-0.2-0.1-0.3-0.2-0.5-0.2
		C460.4,302.8,460.2,303,460,303.1 M540.7,184c-0.1-0.2-0.3-0.3-0.4-0.5c-0.2,0.3-0.4,0.6-0.6,0.9c0.1,0.1,0.2,0.1,0.3,0.2
		C540.2,184.4,540.4,184.2,540.7,184 M496,160.3c0.1,0.6,0,0.9,0.1,1c0.2,0.2,0.5,0.3,0.8,0.4c0.1-0.1,0.2-0.3,0.3-0.4
		C496.9,161.1,496.6,160.8,496,160.3 M543.8,159.8c-0.3-0.1-0.5-0.3-0.5-0.3c-0.2,0.2-0.4,0.4-0.5,0.6c0.2,0.1,0.4,0.2,0.5,0.2
		C543.4,160.2,543.6,160,543.8,159.8 M107.3,307.5c-0.2,0.4-0.4,0.6-0.4,0.8c0,0.2,0.3,0.3,0.5,0.5c0.1-0.2,0.4-0.4,0.4-0.6
		C107.9,307.9,107.6,307.7,107.3,307.5 M334.4,311.1c0.2-0.1,0.4-0.2,0.6-0.3c-0.1-0.2-0.3-0.4-0.4-0.6c-0.2,0.1-0.4,0.3-0.6,0.4
		C334.1,310.7,334.3,310.9,334.4,311.1 M518.6,289.1c-0.2,0.1-0.3,0.2-0.5,0.4c0.2,0.3,0.5,0.6,0.7,0.9c0.1-0.1,0.3-0.2,0.4-0.3
		C519.1,289.8,518.9,289.5,518.6,289.1 M547.5,229.4c-0.6-0.2-0.8-0.3-0.9-0.2c-0.2,0.1-0.3,0.4-0.5,0.6
		C546.4,229.6,546.7,229.6,547.5,229.4 M351.3,289.7c0,0.1,0,0.2,0.1,0.4c0.2,0,0.4,0.1,0.5,0.1c0.2-0.1,0.4-0.2,0.6-0.3
		C352.1,289.8,351.7,289.8,351.3,289.7 M551.5,315.7c-0.2,0.1-0.4,0.2-0.5,0.3c0.2,0.2,0.3,0.4,0.5,0.5c0.1,0,0.3-0.1,0.4-0.2
		C551.8,316.1,551.7,315.9,551.5,315.7 M508.6,316.9c-0.2-0.2-0.4-0.3-0.6-0.4c-0.1,0-0.3,0.1-0.4,0.2c0.2,0.2,0.4,0.4,0.7,0.6
		C508.3,317.2,508.4,317,508.6,316.9 M103.6,288.8c-0.3-0.2-0.5-0.4-0.7-0.4c-0.2,0-0.4,0.3-0.6,0.4c0.2,0.2,0.4,0.4,0.5,0.4
		C103,289.3,103.3,289,103.6,288.8 M211,320.1c-0.2-0.3-0.4-0.5-0.5-0.7c-0.1,0.1-0.4,0.2-0.4,0.3c0,0.2,0.1,0.5,0.2,0.7
		C210.5,320.4,210.7,320.3,211,320.1 M534.6,324.4c-0.3,0.2-0.4,0.3-0.6,0.3c0.2,0.2,0.3,0.4,0.5,0.6c0,0,0.4-0.2,0.4-0.3
		C534.8,324.8,534.7,324.6,534.6,324.4 M240.2,248.2c-0.2-0.1-0.4-0.1-0.5-0.2c0,0.3-0.1,0.7-0.1,1
		C239.7,248.7,239.9,248.5,240.2,248.2 M378.7,333.5c-0.3-0.1-0.5-0.2-0.7-0.2c-0.1,0-0.2,0.3-0.2,0.4c0.1,0.2,0.3,0.3,0.4,0.5
		C378.3,334,378.5,333.8,378.7,333.5 M509,284.5c-0.1-0.1-0.1-0.3-0.2-0.4c0,0-0.2,0-0.2,0.1c0,0.2,0,0.3,0,0.5
		C508.7,284.6,508.9,284.5,509,284.5 M518.5,248.6c0.3,0.5,0.4,0.8,0.5,0.8c0.3,0.1,0.6,0,0.9,0C519.5,249.2,519.2,249,518.5,248.6
		 M97.4,340.8c-0.2-0.1-0.4-0.3-0.7-0.4c-0.1,0-0.3,0.3-0.4,0.5c0.2,0.1,0.4,0.3,0.7,0.3C97.2,341.2,97.3,340.9,97.4,340.8
		 M305.8,341.9c-0.3,0.6-0.5,0.8-0.5,1c0,0.1,0.3,0.3,0.4,0.3c0.2-0.1,0.5-0.2,0.5-0.4C306.2,342.6,306,342.4,305.8,341.9
		 M317.3,345.2c0.2-0.2,0.4-0.5,0.4-0.7c0-0.1-0.3-0.3-0.4-0.4c-0.1,0.2-0.3,0.4-0.4,0.7C316.9,344.9,317.1,345,317.3,345.2
		 M119.3,254c-0.3-0.2-0.5-0.5-0.7-0.4c-0.2,0-0.4,0.3-0.6,0.5c0.2,0.2,0.4,0.5,0.5,0.5C118.8,254.5,119,254.2,119.3,254
		 M124.5,283.1c-0.3-0.1-0.6-0.4-0.8-0.3c-0.2,0.1-0.3,0.3-0.5,0.5c0.2,0.1,0.4,0.4,0.6,0.4C124,283.7,124.2,283.4,124.5,283.1
		 M134.8,281.2c0.1,0.5,0.2,0.8,0.2,0.8c0.3,0,0.5-0.1,0.8-0.2C135.5,281.7,135.2,281.5,134.8,281.2 M166.8,378
		c-0.1-0.2-0.2-0.4-0.3-0.6c-0.2,0.2-0.4,0.3-0.6,0.5c0,0,0.2,0.3,0.2,0.4C166.4,378.3,166.6,378.2,166.8,378 M261.8,276.6
		c-0.2,0.1-0.5,0.2-0.5,0.2c0.1,0.2,0.2,0.5,0.3,0.7c0.2-0.1,0.5-0.2,0.5-0.3C262,277,261.9,276.8,261.8,276.6 M562.7,384.1
		c-0.1,0.1-0.1,0.2-0.2,0.3c0.2,0.2,0.5,0.3,0.8,0.5c0,0,0.1-0.2,0.1-0.2C563.1,384.5,562.9,384.3,562.7,384.1 M318.9,388.5
		c-0.6-0.3-0.8-0.4-0.9-0.4c-0.1,0.1-0.3,0.3-0.3,0.4c0,0.1,0.2,0.4,0.3,0.3C318.3,388.9,318.5,388.7,318.9,388.5 M530.2,275.2
		c0.1-0.1,0.1-0.3,0.2-0.4c-0.4-0.1-0.7-0.3-1.1-0.4c0,0-0.1,0.3-0.2,0.5C529.5,275,529.9,275.1,530.2,275.2 M547.6,397.1
		c0.1-0.1,0.3-0.1,0.4-0.2c-0.1-0.3-0.2-0.6-0.3-0.9c0,0-0.3,0.1-0.5,0.1C547.3,396.5,547.5,396.8,547.6,397.1 M555.4,274.3
		c0.1,0.1,0.3,0.2,0.4,0.2c0.1,0,0.3-0.2,0.4-0.3c-0.2-0.1-0.3-0.3-0.5-0.3C555.7,273.9,555.5,274.1,555.4,274.3 M551.9,259.7
		c-0.1-0.1-0.2-0.3-0.4-0.3c-0.1,0-0.3,0.2-0.5,0.2c0.2,0.1,0.3,0.3,0.5,0.4C551.6,260,551.8,259.8,551.9,259.7 M136.2,274.6
		c0.2,0,0.3,0.1,0.5,0.1v-1.6c-0.1,0-0.2,0-0.3,0C136.4,273.6,136.3,274.1,136.2,274.6 M246.1,261.2c-0.4-0.2-0.6-0.4-0.8-0.5
		c-0.1,0.2-0.3,0.4-0.3,0.5c0.1,0.2,0.3,0.4,0.5,0.6C245.6,261.6,245.8,261.5,246.1,261.2 M544.6,273.2c0.2-0.2,0.4-0.3,0.6-0.5
		c-0.2-0.1-0.3-0.3-0.5-0.4c-0.2,0.2-0.3,0.4-0.5,0.6C544.3,273,544.5,273.1,544.6,273.2 M50.3,403.4c0,0.3,0.1,0.5,0.1,0.8
		c0.4-0.1,0.8-0.3,1.2-0.4c0,0-0.1-0.5-0.1-0.5C51.1,403.3,50.7,403.4,50.3,403.4 M558,403.7c-0.5,0.4-0.7,0.5-0.7,0.7
		c0,0.3,0.1,0.6,0.2,0.9C557.6,404.8,557.8,404.4,558,403.7 M82.9,404.7c-0.1-0.2-0.2-0.5-0.2-0.5c-0.2,0-0.5,0.1-0.7,0.1
		c0.1,0.2,0.1,0.4,0.2,0.4C82.4,404.8,82.6,404.7,82.9,404.7 M438.3,269.5c-0.1-0.1-0.1-0.3-0.2-0.4c-0.3,0.2-0.6,0.3-1,0.5
		c0.1,0.1,0.1,0.3,0.2,0.4C437.7,269.9,438,269.7,438.3,269.5 M38.8,411.9l0.4,0c0-0.4,0.1-0.8,0.1-1.1c-0.1,0-0.3,0-0.4,0
		C38.8,411.2,38.8,411.6,38.8,411.9 M250.1,269.3l0.4,0c0-0.3-0.1-0.6-0.1-0.9c-0.1,0-0.3,0-0.3,0.1
		C250.1,268.7,250.1,269,250.1,269.3 M147.5,411.4c0-0.1-0.1-0.2-0.1-0.3c-0.4,0.1-0.8,0.3-1.1,0.4c0.1,0.2,0.1,0.3,0.2,0.5
		C146.7,411.7,147.1,411.5,147.5,411.4 M548.3,266.1c0.1-0.3,0.3-0.6,0.4-0.9c-0.2,0-0.4-0.2-0.5-0.1c-0.2,0.2-0.4,0.5-0.6,0.8
		C547.8,265.9,548,266,548.3,266.1 M321,416.1c0.4,0.2,0.6,0.3,0.8,0.4c0.1,0,0.3-0.3,0.3-0.4c-0.1-0.2-0.3-0.5-0.4-0.5
		C321.5,415.6,321.3,415.9,321,416.1 M317.6,417.5c-0.3,0.5-0.5,0.8-0.6,1.1c0,0.1,0.2,0.3,0.3,0.5c0.3-0.2,0.6-0.4,0.7-0.7
		C318,418.3,317.8,418,317.6,417.5 M130.9,267.4c-0.1,0.2-0.2,0.4-0.3,0.5c0.4,0.2,0.8,0.4,1.3,0.6c0.1-0.1,0.1-0.3,0.2-0.4
		C131.7,267.9,131.3,267.6,130.9,267.4 M547.4,214.5c0.3-0.1,0.4-0.2,0.6-0.2c-0.2-0.2-0.3-0.5-0.5-0.6c0,0-0.3,0.1-0.5,0.2
		C547.1,214.1,547.3,214.3,547.4,214.5 M289.6,199.5c0-0.2,0-0.4,0-0.6c-0.3,0-0.6,0.1-0.9,0.1c0,0,0,0.2,0,0.3
		C289,199.4,289.3,199.4,289.6,199.5 M550.6,208.8c-0.1-0.1-0.2-0.3-0.4-0.4c-0.3,0.3-0.6,0.5-1,0.8c0.1,0.1,0.2,0.3,0.4,0.4
		C550,209.3,550.3,209,550.6,208.8 M172.9,268.8c0-0.1,0-0.3,0-0.4c-0.4,0-0.8-0.1-1.2-0.1c0,0.3,0,0.5,0,0.8
		C172.1,269,172.5,268.9,172.9,268.8 M116.9,265c0.2,0,0.4-0.1,0.6-0.1c-0.1-0.4-0.2-0.8-0.4-1.1c0,0-0.4,0-0.4,0.1
		C116.8,264.2,116.9,264.6,116.9,265 M507.1,331.8c-0.1,0.3-0.3,0.5-0.3,0.8c0,0.1,0.3,0.3,0.4,0.3c0.2-0.1,0.4-0.3,0.6-0.5
		C507.6,332.2,507.4,332,507.1,331.8 M561.9,412.6l0.1-0.5c-0.3-0.1-0.6-0.3-1-0.4c-0.1,0.2-0.2,0.5-0.1,0.5
		C561.3,412.4,561.6,412.5,561.9,412.6 M76.8,339.8c0.2,0,0.3,0,0.5,0.1c0.1-0.5,0.1-0.9,0.2-1.4c-0.2,0-0.3,0-0.5-0.1
		C76.9,338.9,76.9,339.3,76.8,339.8 M146.6,272.9c-0.9-0.3-1.1-0.4-1.3-0.5c0,0.1,0,0.1-0.1,0.2
		C145.5,272.6,145.7,272.6,146.6,272.9 M240.4,369.3c-0.3,0.4-0.5,0.6-0.5,0.8c0.1,0.2,0.3,0.4,0.6,0.5c0.1,0,0.4-0.2,0.4-0.2
		C240.8,370.1,240.7,369.8,240.4,369.3 M371.4,351.9c-0.3-0.2-0.5-0.4-0.7-0.4c-0.1,0-0.4,0.2-0.3,0.4c0,0.2,0.2,0.4,0.3,0.6
		C370.9,352.3,371.1,352.1,371.4,351.9 M319.4,347.7c-0.1,0.1-0.3,0.1-0.4,0.2c0.2,0.4,0.3,0.7,0.5,1.1c0.1,0,0.2-0.1,0.3-0.1
		C319.7,348.5,319.5,348.1,319.4,347.7 M549,222.5l-0.4-0.2c-0.2,0.4-0.3,0.8-0.5,1.2c0.1,0.1,0.3,0.1,0.4,0.2
		C548.7,223.3,548.8,222.9,549,222.5 M109.3,274.2c0.6-0.5,0.9-0.6,1-0.8c0.1-0.2,0-0.5,0-0.8l-0.3,0
		C109.7,272.9,109.6,273.3,109.3,274.2 M533.9,326.7c-0.1,0.1-0.2,0.3-0.3,0.4c0.3,0.2,0.6,0.4,1,0.6c0.1-0.2,0.2-0.3,0.3-0.5
		C534.5,327.1,534.2,326.9,533.9,326.7 M70.6,419.2c0.1-0.1,0.2-0.3,0.2-0.4c-0.3-0.2-0.6-0.5-0.9-0.7c-0.1,0.2-0.3,0.4-0.5,0.6
		C69.9,418.8,70.2,419,70.6,419.2 M309.4,357.6c-0.2,0.1-0.4,0.1-0.5,0.2c0.1,0.2,0.2,0.5,0.4,0.6c0.1,0.1,0.4-0.1,0.6-0.2
		C309.6,358,309.5,357.8,309.4,357.6 M129.9,258.2c0.2,0.1,0.4,0.2,0.6,0.4c0.2-0.4,0.3-0.7,0.5-1.1c-0.2,0-0.4-0.2-0.5-0.1
		C130.3,257.6,130.1,257.9,129.9,258.2 M253.9,287.8c-0.1,0.1-0.2,0.3-0.2,0.4c0.4,0.2,0.7,0.4,1.1,0.6c0.1-0.1,0.2-0.3,0.2-0.4
		C254.6,288.2,254.2,288,253.9,287.8 M375.4,370.1c0,0.1,0.1,0.3,0.1,0.5c0.4-0.1,0.8-0.2,1.2-0.3c0-0.2-0.1-0.3-0.1-0.5
		C376.2,369.8,375.8,369.9,375.4,370.1 M538.9,245.2c0.2,0,0.4,0.1,0.6,0.1v-1.5l-0.5,0C538.9,244.2,538.9,244.7,538.9,245.2
		 M232.4,397.9c-0.1,0.2-0.2,0.3-0.2,0.5l1.1,0.5c0.1-0.1,0.1-0.2,0.2-0.4C233.1,398.3,232.7,398.1,232.4,397.9 M492.1,279.4
		c-0.1-0.2-0.2-0.3-0.3-0.5c-0.4,0.2-0.8,0.5-1.2,0.7c0.1,0.1,0.2,0.3,0.2,0.4C491.3,279.8,491.7,279.6,492.1,279.4 M137.2,244.8
		c-1.7,0.1-1.7,0.1-1.2,1.3C136.4,245.7,136.7,245.4,137.2,244.8 M230.3,312.9c-0.4-0.2-0.6-0.5-0.8-0.5c-0.2,0-0.4,0.3-0.6,0.5
		c0.2,0.1,0.4,0.4,0.6,0.4C229.8,313.4,230,313.1,230.3,312.9 M105.9,313.5c-0.2,0.2-0.3,0.3-0.5,0.5c0.3,0.3,0.6,0.5,0.9,0.8
		c0,0,0.4-0.3,0.3-0.3C106.4,314.1,106.2,313.8,105.9,313.5 M53.4,373.5c0.1-0.1,0.1-0.3,0.2-0.4c-0.4-0.2-0.8-0.4-1.3-0.6
		c-0.1,0.2-0.2,0.5-0.2,0.7C52.5,373.2,53,373.4,53.4,373.5 M517.2,312.9c-0.3,0.3-0.6,0.4-0.6,0.6c0,0.3,0.2,0.6,0.3,0.9
		c0.2-0.2,0.5-0.5,0.6-0.7C517.6,313.5,517.4,313.2,517.2,312.9 M94.3,356.1c0.1-0.2,0.1-0.3,0.2-0.5c-0.4-0.2-0.8-0.3-1.2-0.5
		c-0.1,0.2-0.1,0.3-0.2,0.5C93.5,355.8,93.9,355.9,94.3,356.1 M526.1,268.3c0.1,0.1,0.1,0.2,0.2,0.2c0.1-0.1,0.3-0.2,0.4-0.4
		c0.1-0.3,0.1-0.6,0.2-0.9C526.6,267.6,526.4,268,526.1,268.3 M319.2,396.1c-0.2-0.1-0.3-0.1-0.5-0.2c-0.1,0.4-0.2,0.9-0.4,1.3
		c0.1,0,0.2,0.1,0.3,0.1C318.8,396.9,319,396.5,319.2,396.1 M49.6,396.5c0.1-0.2,0.2-0.5,0.3-0.7c-0.5-0.1-0.9-0.3-1.4-0.4
		c0,0-0.2,0.4-0.1,0.5C48.8,396.2,49.2,396.3,49.6,396.5 M144.6,248.5c0.1-0.2,0.2-0.3,0.4-0.5c-0.4-0.3-0.9-0.7-1.3-1l-0.3,0.4
		C143.8,247.8,144.2,248.2,144.6,248.5 M353.4,281.2c0,0.2-0.1,0.3-0.1,0.5c0.5,0.1,1,0.1,1.5,0.2c0-0.1,0-0.3,0.1-0.4
		C354.4,281.4,353.9,281.3,353.4,281.2 M496.3,255.6c-0.5-0.5-0.7-0.8-0.9-0.8c-0.2,0-0.4,0.3-0.6,0.4c0.2,0.2,0.4,0.6,0.7,0.7
		C495.7,256,496,255.7,496.3,255.6 M359.1,287.5c-0.1-0.1-0.3-0.1-0.4-0.2c-0.2,0.4-0.4,0.8-0.6,1.2c0.2,0.1,0.3,0.1,0.5,0.2
		C358.8,288.3,358.9,287.9,359.1,287.5 M320,416.9c-0.4-0.6-0.5-1-0.8-1c-0.2-0.1-0.6,0.2-0.8,0.5c-0.1,0.1,0.1,0.6,0.3,0.6
		C319,417.1,319.3,417,320,416.9 M314.7,400.5c-0.1-0.1-0.1-0.3-0.2-0.4l-1.2,0.6c0.1,0.1,0.1,0.3,0.2,0.4
		C313.9,400.9,314.3,400.7,314.7,400.5 M103.8,311.1c0-0.2-0.1-0.4-0.1-0.6c-0.4,0.1-0.8,0.1-1.2,0.2c0,0.2,0.1,0.5,0.1,0.7
		C103,311.3,103.4,311.2,103.8,311.1 M496.1,272.8c0.7,1.9,1.3,1,2,0.3C497.4,273,496.9,272.9,496.1,272.8 M565.8,413.4
		c0-0.2-0.1-0.4-0.1-0.6c-0.5,0.1-1,0.2-1.5,0.3c0,0.2,0.1,0.4,0.1,0.6C564.8,413.6,565.3,413.5,565.8,413.4 M563.5,419.7
		c0,0.1,0,0.2-0.1,0.3c0.4,0.1,0.9,0.2,1.3,0.3c0-0.1,0-0.3,0.1-0.4C564.4,419.8,563.9,419.8,563.5,419.7 M416.6,321.4
		c-0.1,0.2-0.3,0.4-0.4,0.6c0.4,0.2,0.8,0.5,1.2,0.7c0.1-0.2,0.3-0.4,0.2-0.5C417.3,321.9,417,321.7,416.6,321.4 M490.3,217.1
		c-0.5-0.2-0.9-0.5-1.1-0.4c-0.3,0.1-0.4,0.5-0.6,0.7c0.3,0.2,0.5,0.5,0.8,0.5C489.6,217.8,489.8,217.5,490.3,217.1 M265,270
		c0.1,0.2,0.1,0.4,0.2,0.6l1.4-0.5c-0.1-0.2-0.1-0.3-0.2-0.5L265,270z M264.1,296.7c0.2-0.2,0.5-0.5,0.7-0.7c-0.3-0.3-0.7-0.7-1-1
		c-0.3,0.2-0.5,0.5-0.8,0.7C263.4,296.1,263.7,296.4,264.1,296.7 M551.8,263.3c0.3,0.4,0.4,0.7,0.5,0.7c0.3,0,0.7-0.2,1-0.3
		C552.9,263.6,552.5,263.4,551.8,263.3 M492.4,161.4c0-0.1,0.1-0.3,0.1-0.4c-0.5-0.2-1.1-0.3-1.6-0.5c0,0.2-0.1,0.3-0.1,0.5
		C491.3,161.1,491.9,161.2,492.4,161.4 M120.2,299.8c-0.1-0.2-0.1-0.3-0.2-0.5c-0.5,0.2-1,0.4-1.5,0.6c0.1,0.2,0.2,0.3,0.2,0.5
		C119.2,300.3,119.7,300,120.2,299.8 M320.2,357.6c-0.3,0.3-0.6,0.5-0.6,0.6c0.1,0.3,0.3,0.6,0.6,0.8c0.1,0.1,0.4-0.2,0.7-0.3
		C320.6,358.3,320.4,358,320.2,357.6 M491.3,268.8c-0.3-1.5-0.3-1.5-1.4-0.6C490.4,268.4,490.8,268.6,491.3,268.8 M303.5,197.1
		c0.2,0,0.4,0,0.5,0l-0.2-1.6c-0.2,0-0.3,0-0.5,0.1L303.5,197.1z M147.2,252.8c0.1,0.1,0.3,0.1,0.4,0.2c0.2-0.4,0.4-0.8,0.7-1.2
		c-0.2-0.1-0.4-0.2-0.6-0.3C147.5,251.9,147.4,252.4,147.2,252.8 M517.4,267.6c-1.2,0.5-1.3,1.1-0.2,2.1
		C517.3,268.7,517.3,268.1,517.4,267.6 M155.2,404.4c0-0.2,0-0.5,0-0.7c-0.5,0-1-0.1-1.5-0.1c0,0.1,0,0.3-0.1,0.4
		C154.1,404.1,154.6,404.3,155.2,404.4 M346.2,306.2c-0.6-1.8-0.6-1.8-1.9-2.3C344.9,304.6,345.4,305.2,346.2,306.2 M249.4,320.4
		l0.3,0.1c0.3-0.6,0.6-1.1,0.9-1.7c-0.2-0.1-0.4-0.2-0.5-0.2C249.9,319.2,249.7,319.8,249.4,320.4 M252.4,296.1
		c-0.2,0-0.4-0.1-0.6-0.1c-0.1,0.5-0.1,1-0.2,1.6c0.2,0,0.3,0,0.5,0.1C252.2,297.1,252.3,296.6,252.4,296.1 M556.3,260.7
		c-0.2,0-0.4,0-0.6,0c-0.1,0.3-0.2,0.5-0.2,0.8c0,0.3,0.1,0.6,0.2,0.9c0.2,0,0.3,0,0.5,0V260.7z M205.9,292.3c0.4-0.5,0.7-0.8,0.7-1
		c0-0.3-0.3-0.6-0.5-0.8c-0.2,0.2-0.6,0.4-0.7,0.7C205.3,291.4,205.6,291.7,205.9,292.3 M534.7,241.6c0.6,1.5,1.2,1.4,2.2,0.4
		C536.1,241.8,535.5,241.7,534.7,241.6 M226.1,407.9c-0.5,0.8-0.8,1.1-0.8,1.3c0,0.3,0.3,0.6,0.5,1c0.1,0,0.3-0.1,0.4-0.1
		C226.2,409.5,226.2,409.1,226.1,407.9 M516.8,280.7c-0.2-0.1-0.3-0.3-0.5-0.4c-0.3,0.3-0.6,0.6-0.9,0.8c0.2,0.2,0.6,0.5,0.6,0.4
		C516.3,281.4,516.6,281,516.8,280.7 M125.5,285.7c-0.2,0.2-0.5,0.4-0.7,0.6c0.4,0.4,0.7,0.7,1.1,1.1c0,0,0.4-0.3,0.4-0.3
		C126,286.6,125.8,286.1,125.5,285.7 M114.8,256.7l0.5-0.2c-0.2-0.5-0.4-1-0.6-1.6c-0.1,0-0.3,0.1-0.4,0.1
		C114.5,255.6,114.7,256.1,114.8,256.7 M112.9,284.8c-1.1-1-1.8-0.5-2.7,0.6C111.4,285.1,112.1,285,112.9,284.8 M558.4,245.9
		c-0.3,0-0.5,0.1-0.8,0.1c0.2,0.8,0.4,1.5,0.7,2.6C558.3,247.5,558.3,246.7,558.4,245.9 M534.2,278c-0.4-0.8-0.7-1.3-1.2-2.1
		C532.4,277.4,532.6,277.9,534.2,278 M511.4,259.8c1.5,0.7,1.5,0.7,1.9-0.4C512.7,259.5,512.1,259.6,511.4,259.8 M227.8,420.5
		c-1.1-0.7-1.7-1-2.6-1.6C225.5,420.3,226.1,420.7,227.8,420.5 M397.8,420.9c0.9-0.2,2-0.4,1.3-2.1
		C398.6,419.7,398.2,420.3,397.8,420.9 M92,299c0.4-0.7,0.6-1.2,0.9-1.8C91.1,297.6,91.1,297.6,92,299 M545.7,209.5
		c-0.9,1.5-0.9,1.5,0.3,2.1C545.9,210.9,545.9,210.3,545.7,209.5 M331.9,319.7c0.1,0.2,0.1,0.4,0.2,0.6c0.6-0.2,1.2-0.3,1.7-0.6
		c0.1-0.1,0.1-0.4,0.2-0.9C333.2,319.2,332.6,319.4,331.9,319.7 M529.5,269.8c-0.2,1.8,0.2,2.3,1.8,2.3
		C530.7,271.3,530.3,270.8,529.5,269.8 M98.8,322.8c1.9,0.9,1.9,0.9,1.9-0.6C100.1,322.4,99.5,322.6,98.8,322.8 M290.5,194.8
		c0.2,0.2,0.3,0.4,0.3,0.4c0.6-0.3,1.1-0.6,1.7-1c-0.1-0.2-0.2-0.3-0.3-0.5C291.6,194.1,291.1,194.5,290.5,194.8 M504.8,263.6
		c-1.1,1.5-1.1,2.6-0.4,2.7C504.5,265.6,504.6,264.9,504.8,263.6 M85.1,369.7c0.2,0,0.3,0,0.5,0v-1.8c-0.2,0-0.3,0-0.5,0V369.7z
		 M139.9,266.4c0.1-0.1,0.1-0.3,0.2-0.5c-0.8-0.2-1.6-0.5-2.4-0.7c0,0.1-0.1,0.2-0.1,0.2C138.4,265.8,139.2,266.1,139.9,266.4
		 M129.5,253v2.5C131.1,254.9,130.6,254.2,129.5,253 M526.1,302.2c0-0.1,0-0.2,0-0.3c-0.7,0.1-1.5,0.1-2.2,0.2c0,0-0.1,0.3-0.1,0.5
		c0,0.2,0.2,0.3,0.3,0.4C524.8,302.8,525.4,302.5,526.1,302.2 M249.8,326.8c1.3-0.9,1.3-0.9-0.3-1.7
		C249.6,325.7,249.7,326.2,249.8,326.8 M555.6,269.8c-0.7,1.8-0.7,1.9,0.5,2.4C555.9,271.5,555.8,270.8,555.6,269.8 M104,261.7
		c-1.7-0.7-2,0.3-2.4,1.5C102.4,262.7,103.1,262.3,104,261.7 M515.9,279c0.1-1.1,0.2-1.8,0.2-2.9C514.6,277.1,514.5,277.8,515.9,279
		 M324.5,396.5c-1.4-0.7-1.4-0.7-1.9,0.1c-0.1,0.2,0,0.5,0.1,0.9C323.2,397.1,323.8,396.8,324.5,396.5 M230.1,397.7
		c-0.2-0.9-0.4-1.5-0.6-2.3c-0.6,0.5-1,0.8-1.6,1.3C228.7,397.1,229.2,397.3,230.1,397.7 M532.5,192.2c0.5-0.4,1-0.8,1.8-1.5
		C532.8,190.5,532.2,190.8,532.5,192.2 M251.5,240.8c-0.5-0.4-0.8-0.7-1.1-1c-0.2,0.2-0.7,0.6-0.6,0.7c0.2,0.4,0.5,0.7,0.8,0.9
		C250.8,241.4,251.1,241,251.5,240.8 M523.5,234.4c-1.1,0.3-1.7,0.5-2.8,0.8C522.1,235.7,522.9,236.2,523.5,234.4 M498.3,289.5
		c-0.5,0.8-1.4,1.4-0.4,2.5C498.1,291.2,498.2,290.4,498.3,289.5 M537.1,225.6v2.4c0.3-0.2,0.7-0.4,1.1-0.7
		C537.8,226.8,537.5,226.3,537.1,225.6 M541.5,229c1,2.1,1,2.1,2.6,1.6C543.2,230.1,542.5,229.6,541.5,229 M542.8,207.2
		c-2,0.5-2.1,1.3-1.1,2.3c0.1,0.1,0.3,0,0.6-0.1C542.4,208.8,542.6,208.2,542.8,207.2 M512.3,233.5c-1.4-1.2-1.8-0.4-2.1,0.8
		C510.9,234.1,511.6,233.8,512.3,233.5 M526.6,288.6c-0.3,0-0.5,0-0.8,0c-0.2,0.8-0.3,1.7-0.5,2.5c0.2,0,0.4,0.1,0.6,0.1
		C526.2,290.3,526.4,289.4,526.6,288.6 M75.2,391.3c1.9,0.9,1.9,0.9,2.4-0.8C76.9,390.7,76,391,75.2,391.3 M39.9,415.7
		c-0.4-0.7-0.8-1.5-1.3-2.5C38.3,414.8,38.3,414.8,39.9,415.7 M556.8,253.4c-1.3,0.5-2.2,0.8-3.7,1.4
		C556.2,254.7,556.2,254.7,556.8,253.4 M530.2,281.1c0.2,1.7,0.2,1.7,2.1,1.9C531.5,282.4,530.9,281.7,530.2,281.1 M317,379.3
		c0,2.6,0,2.6,1.2,2.7C317.8,381.2,317.5,380.5,317,379.3 M551.6,275.9c1.3,0.7,1.3,0.7,2.7-1.1
		C553.2,275.2,552.5,275.5,551.6,275.9 M464,314.6c-1.3,0.7-2.2,1.2-3.5,1.9C462.5,316.8,463,315.8,464,314.6 M514.7,262.5
		c0.7-0.8,1.2-1.3,2-2.1C514.7,260.1,514.5,260.9,514.7,262.5 M321.6,318.8c-0.1,0.2-0.2,0.5-0.3,0.7c0.7,0.2,1.4,0.5,2.1,0.7
		c0.1-0.2,0.1-0.4,0.2-0.6C322.9,319.3,322.2,319,321.6,318.8 M113.6,265.3c0.1-1.7-0.2-2.3-1.4-2.1c-0.1,0-0.2,0.2-0.5,0.6
		C112.2,264.2,112.7,264.7,113.6,265.3 M498.9,257.3c0.2,0.3,0.4,0.6,0.6,0.9c0.7-0.6,1.4-1.1,2.2-1.7c-0.1-0.2-0.3-0.4-0.4-0.6
		C500.4,256.4,499.6,256.9,498.9,257.3 M217.4,399.2c0,0.2-0.1,0.5-0.1,0.7c0.8,0.9,1.5,0.6,2.8-0.4
		C218.9,399.4,218.2,399.3,217.4,399.2 M486,267.8c-1.1-0.8-1.8-1.2-2.6-1.7C483.4,267.7,484,268.3,486,267.8 M565.9,388.4
		c-0.5-0.8-0.9-1.3-1.6-2.3c-0.2,1.3-0.3,2-0.4,3.2C564.7,388.8,565.2,388.7,565.9,388.4 M311.2,386.9c-0.5-0.6-0.8-1.2-1.1-1.2
		c-1.1,0-1.5,0.8-1.8,2C309.3,387.5,310,387.3,311.2,386.9 M456,302.6c-0.7,1.2-0.3,1.9,0.8,2.5C457.4,303.8,457.4,303,456,302.6
		 M410.3,248.9c0.8,0.2,1.5,0.3,2.4,0.6c-0.1-0.7,0-1.4-0.2-1.5C411.7,247.7,410.8,247.5,410.3,248.9 M214.9,319.7h-3
		C212.8,321.4,213.5,321.6,214.9,319.7 M488.5,278.6c-0.9-0.6-1.7-1-2.4-1.5c-0.1,0.1-0.2,0.2-0.3,0.3c0.5,0.8,1.1,1.7,1.8,2.8
		C488,279.5,488.3,279.2,488.5,278.6 M517.7,262.6c-0.1,0.2-0.2,0.3-0.3,0.5c0.5,0.4,1,1.1,1.5,1.2c0.4,0.1,0.9-0.7,1.8-1.4
		C519.3,262.7,518.5,262.6,517.7,262.6 M59.4,412.7c0.9-1,1.6-1.7,1.3-2.9C59.3,410.2,58.6,410.8,59.4,412.7 M540,249.1
		c1.4-1.2,2.3-1.9,3.2-2.7C541.6,246.1,541.2,246.4,540,249.1 M550.5,229.7c0.2-1.1,0.3-1.9,0.6-3.1c-1,0.6-1.7,1-2.4,1.5
		C549.3,228.6,549.8,229,550.5,229.7 M92.9,321.7c0.2,0.1,0.4,0.1,0.6,0.2c1.4-1.8,1.4-1.8,0.8-3.7
		C93.7,319.7,93.3,320.7,92.9,321.7 M314.3,407.3c-1.6-1.2-2.1-1.1-3.3,0.4C312,407.5,313,407.4,314.3,407.3 M309.8,388.4
		c-0.9,0.7-2.2,1-1.2,2.3c0.2,0.3,1.1,0.1,2,0.2C310.2,389.8,310.1,389.2,309.8,388.4 M534.3,222.9c1.2-0.3,2.5-0.7,3.7-1
		C536.3,220.8,535.1,221.2,534.3,222.9 M233.6,383.5c-0.6-0.6-1.2-1.2-1.8-1.7C231.2,383.2,231.4,383.5,233.6,383.5 M349.9,292.9
		c2.3,1.8,2.6,1.8,3.3,0H349.9z M317.4,410.3c-1,0.5-1.6,0.8-2.4,1.2c0.7,0.3,1.1,0.5,1.5,0.8c0.3,0.3,0.4,0.7,0.6,1.1
		c0.2-0.1,0.3-0.1,0.5-0.2C317.5,412.4,317.5,411.6,317.4,410.3 M346.2,311.2c1.5-0.5,3.8-0.6,3.2-3.1
		C348.3,309.2,347.3,310.2,346.2,311.2 M102.4,315.4c-2.7-2-2.7-2-3.5-0.3C100.1,315.1,101,316.8,102.4,315.4 M541.2,274.5
		c1.4,2.5,1.8,2.6,3.5,1.1C543.6,275.2,542.4,274.9,541.2,274.5 M551.4,295.8c0.2-1,0.3-2,0.5-3c-0.2,0-0.4-0.1-0.6-0.1
		C550.8,293.7,549.1,294.3,551.4,295.8 M562.3,419c1.3-0.3,2.3-0.6,3.3-0.9c0-0.2-0.1-0.3-0.1-0.5c-1.2-0.2-2.5-0.4-4.1-0.6
		C561.7,417.9,562,418.4,562.3,419 M99.9,286.7c-0.6,2.1-1.6,2.4-3.3,1.4c1.7,1.2,4.3,1,4.5-0.5C100.8,287.3,100.4,287,99.9,286.7
		 M538.4,284.2c-0.2,0.8-0.3,1.4-0.5,2c1.3,0.1,2.4,0.2,3.5,0.3c0.1-0.2,0.1-0.3,0.2-0.5C540.6,285.3,539.6,284.8,538.4,284.2
		 M224.8,334.2c-1.3,1-2,1.5-2.8,2.1c0.9,0.4,1.6,1.5,2.5,0.4C224.8,336.3,224.6,335.4,224.8,334.2 M105.2,256.6
		c-0.4,1-0.7,1.6-0.9,2.2c-0.5,1.6-0.2,1.8,1.9,1.6C105.9,259.3,105.6,258.2,105.2,256.6 M542.7,273.1c0.2-2.4-2.1-1.5-2.7-2.7
		c0-0.1-0.8,0.2-1.6,0.4C540,271.7,541.3,272.3,542.7,273.1 M259.2,230.7c0.5-0.6,1.2-1.1,1.1-1.4c-0.2-0.5-0.7-1-1.2-1.3
		c-0.1-0.1-1,0.7-1,0.9C258.2,229.6,258.7,230,259.2,230.7 M231,337.4c0.5-1.2,1-2,1.2-2.9c0.2-0.7,0.3-1.5,0.4-2.3
		c-0.2,0-0.4-0.1-0.6-0.1C231.7,333.8,230.4,335.3,231,337.4 M233,374.2c0.4,1.5,0.7,2.7,1,3.9c0.2,0,0.3,0,0.5-0.1v-2.3
		c0.6-0.3,1.2-0.5,1.7-0.8c0-0.2,0-0.3,0-0.5C235.3,374.3,234.3,374.3,233,374.2 M565.7,402.6c-1.9-0.4-1.9-0.4-3.1,3
		C563.4,404.3,566,405,565.7,402.6 M233.9,279.3c1-0.2,2-0.3,3.1-0.5c-0.5-1.3-1.3-2-2.6-1.5C233.4,277.6,233.2,278.4,233.9,279.3
		 M537,262.9c-0.2-0.2-0.5-0.4-0.7-0.6c-1.1,1.1-2.1,2.3-3.1,3.4c0.2,0.6,0.4,1,0.8,1.9C535.2,265.7,536.1,264.3,537,262.9
		 M44.8,398.3c-0.7,0.8-1.1,1.4-1.6,1.8c-0.6,0.4-1.8-0.3-1.9,1C44.6,401.8,44.8,401.6,44.8,398.3 M533.5,241.2
		c-0.8,0-1.9-0.3-2.1,0.1c-0.5,0.7-0.6,1.7-0.8,2.4c0.9,0,1.8,0.1,2.7,0.1C533.4,243,533.4,242.2,533.5,241.2 M539.9,301.5
		c-1.1,0.1-2.1,0.2-3.3,0.2c0.9,1.2,2.9,2.1,5.5,2.5C541.3,303.3,540.7,302.4,539.9,301.5 M491.8,258.3c-2.2,1.7,1.4,3,0.1,4.7
		c1-0.6,2-1.1,3-1.7c0-0.2-0.1-0.5-0.1-0.7c-1-0.2-1.9-0.5-3-0.7V258.3z M87,308.5c2.3-0.2,2.3-2.4,3.4-3.2
		c-0.6-0.5-1.1-0.9-1.7-1.4C87.7,305.3,86.6,306.6,87,308.5 M115.6,301.9c-1,1.5-2.1,2.6-2.4,3.8c-0.2,0.8-1.9,2.3,0.5,2.9
		C115.2,306.7,115.3,304.5,115.6,301.9 M45.4,404.4c-2.3-0.3-2.9,1.3-3.7,2.9c1-0.1,1.8-0.1,2.5-0.1c0.5,0,1.1,0.1,1.4-0.2
		c1-0.8-0.3-0.9-0.5-1.4C45,405.3,45.3,404.8,45.4,404.4 M52.7,393.1c-1.4,2-0.4,3.4,1.2,5.1c0.1-1.6,2.4-0.5,2.6-2.3
		c-1.1,0.1-2,0.1-2.8,0.2C52.9,394.9,54.9,393.3,52.7,393.1 M553.4,377.1c1,2.1,2-0.2,3,0.1c0.2,0.6,0.3,1.1,0.4,1.4
		c0.7-0.3,1.3-1,1.9-0.9c1.7,0.2,0.9-0.8,1.4-1.8c-2.5,1-4.1,0.2-5.5-1.3c-0.2,0.2-0.4,0.3-0.4,0.5
		C553.9,375.7,553.7,376.4,553.4,377.1 M69.5,375.6c0-0.2,0-0.4,0-0.7c0.7-0.1,1.5-0.2,2.2-0.3c0-0.1,0-0.3-0.1-0.4h-3.4
		c0.1,1.7,0.2,3.1,0.4,4.7c0.6-0.1,1.3-0.3,1.4-0.3c0.8-1.3,1.4-2,2-3H69.5z M104.1,268.2c-0.8-0.1-1.7-0.3-2.5-0.4v3.4h1.6
		c1.3-2,2.5-3.8,3.6-5.5c-0.7-0.8-1.1-1.4-1.7-2.1C104.4,265.1,106.6,267,104.1,268.2 M101.2,297.9L101.2,297.9
		c-1.4-1.8-2.4-2-4-0.6c-0.1,0-0.2,0-0.3-0.1c0.1,0,0.2,0,0.2,0.1c1.3,0.8,2.6,1.6,4.1,2.2c0.4,0.2,1.1-0.3,1,0.6
		c0,0.2-0.6,0.5-1,0.6c-0.4,0.1-0.8,0.2-1.4,0.3c0.5,1.3,0.8,2.5,1.2,3.6c2.3-0.7,3.8-2,5.2-4c-0.8-1-1.6-1.9-2.4-2.9l0,0
		c0.8-1.6,2-2.4,4.1-2c-0.1-0.7,0-1.5-0.4-1.8c-0.4-0.3-1.4-0.3-1.7,0c-1.3,1.1-2.5,0.8-3.7,0.2c-1.6-0.6-3.1-0.6-4.8,0.3
		c1.9,0.2,3.8,0.5,6.3,0.8C102.6,296.4,101.9,297.2,101.2,297.9 M507.6,255.6c0.9-0.1,1.8-0.2,2.9-0.4c-0.7-0.5-1.2-0.8-1.7-1.1
		c0.3-0.4,0.5-0.9,0.7-1c1-0.1,2,0,2.9,0c0.5-0.9,1-1.8,1.8-3c0.4,1,0.7,1.6,1.1,2.5c0.4-1.5,0.7-2.7,0.9-3.6
		c-1.2-0.3-2.2-0.6-3.1-0.9c-0.8,1.1,0.9,3.1-1.5,3.6c-0.7-0.9-1.4-1.9-2.1-2.8c0,0.6,0.2,1.3,0.1,2c0,0.4-0.4,1.1-0.5,1.1
		c-1.3-0.1-0.9,0.9-1,1.5C507.8,254.2,507.8,254.9,507.6,255.6l-0.1,0.1L507.6,255.6z M530.7,234.3L530.7,234.3
		c-0.6,1.3-0.1,2.1,1.1,2.5c0.2,1.1-1.6,2.1,0.2,3.1c1.5-2.3-0.4-4.4,0.2-6.5c-2.5-1.2-4.5,1.5-7,0.1c0.9,1.9,1.6,3.4,2.2,4.8
		c0.7-0.9,1.9-1.8,1.8-2.4C528.9,234.4,529.8,234.5,530.7,234.3 M125.3,274.1c-0.2,0-0.4,0-0.6,0c-0.7-0.2-1.4-0.4-2.1-0.6
		c-0.5,1.3-1,2.4-1.5,3.6c0.9,0.3,1.6,0.5,2.1,0.7c0.5-1,1-1.8,1.5-2.7c0.6,0.4,1.2,0.7,2,1.3c1.3-1.5,2.7-3,4.3-4.8
		c-2.8,0-2.8,0-3.4,2.1C126.8,273.9,126.1,274,125.3,274.1 M311.8,416.7c1.1,0.1,2,0.4,1.9,1.9c0,0.5,0.4,1,0.6,1.5
		c0.2,0,0.4-0.1,0.5-0.1c-0.1-1-0.1-1.9-0.2-2.8c0.6-0.4,1.2-0.8,1.6-1.1c0-1.6-1.1-2.2-2.2-2.8l-0.6,0c-1.7-0.3-1.9-1.9-2.4-3.1
		c-0.2,1.1-0.4,2.1-0.7,3.2C312.6,413.4,311.5,415.5,311.8,416.7c-0.2,0.2-0.4,0.4-0.6,0.6c0,0,0.1,0.1,0.1,0.2
		C311.5,417.2,311.7,417,311.8,416.7 M115.5,283.3c0.8-0.6,1.6-1.2,2.4-1.7c0.6,1,1.2,1.9,1.7,2.8c-0.1-2.3,1.5-2.2,2.8-2.2
		c0.4-1.8-0.3-2.7-2.2-3c0.5,0.9,0.9,1.5,1.2,2c-0.1,0.2-0.3,0.3-0.4,0.5c-1.5-1-3.1-1.9-4.6-2.9c-0.4,0.5-0.6,0.8-0.9,1.1l0,0
		c-0.2,0.3-0.4,0.5-0.6,0.8c1,0.4,1,0.9,0.4,1.7C115.1,282.5,115.4,283,115.5,283.3l0,0.1L115.5,283.3z M124.2,264.9L124.2,264.9
		c1.5,0.4,0.4,1.9,0.8,2.5c1.3-0.4,2.3-0.7,3-0.9c-0.2-1-0.4-2-0.6-3c-1.2-1.1-2.5-0.9-3.9-0.4c-0.3-0.2-0.6-0.3-0.9-0.5
		c0,0.1-0.1,0.2-0.1,0.3c0.4,0,0.7,0.1,1.1,0.1C123.8,263.7,124,264.3,124.2,264.9 M153.5,406.2c-1.5,0.6-2.9,1.1-4.4,1.7
		c1.5,2.7,1.6,2.7,5.9,0.6C154.5,407.8,154,407,153.5,406.2c0.3-0.1,0.6-0.1,1-0.1c0-0.1,0-0.1,0-0.2
		C154.1,406,153.8,406.1,153.5,406.2 M117.8,256.8c-0.1-0.3-0.2-0.6-0.3-0.9c-0.2,0.1-0.4,0.2-0.5,0.4
		C117.2,256.4,117.5,256.6,117.8,256.8c-0.3,0.4-0.6,1.1-1,1.2c-0.9,0.2-1.2,0.7-1.2,1.6l0.1,0c-0.3,0.7-0.5,1.5-1,2.7
		c1.4-0.2,2.2-0.4,3-0.5c0.7-4.7,0.4-3.5,3-4.1C119.9,256.4,118.9,256.3,117.8,256.8 M77.4,359c-0.5,0.1-1.4,0-1.4,0.2
		c-0.4,1.2-0.5,2.5-0.8,3.8c1.4,0.3,0.4,1.4,0.8,2.1c0.1,0.1,0.3,0.1,0.5,0.2c0.1-0.6,0.2-1.2,0.3-1.9h2.6
		C76.3,361.1,76.3,361.1,77.4,359c0-0.1,0-0.2,0.1-0.2C77.4,358.9,77.4,358.9,77.4,359 M84.9,312.8c-0.3-0.1-0.7-0.2-0.7-0.2
		c-0.3,1.2-0.5,2.3-0.8,3.3c1.5-0.2,3.1-0.5,4.9-0.8C86.9,314.1,85.9,313.4,84.9,312.8c1-0.2,2-0.4,3.1-0.6
		c-0.1-0.7-0.3-1.6-0.5-2.6c-0.9,0.1-1.6,0.2-2.1,0.3C85.2,311,85.1,311.9,84.9,312.8 M497.2,267.2c0.1-1.7-1.1-2.6-2.4-3.5
		c-0.4,0.4-0.8,0.7-1.2,1C494.9,265.6,496.1,266.4,497.2,267.2c0.6,0.5,1.2,1.1,1.8,1.7c-0.1,0.2-0.3,0.4-0.1,0.1
		c-0.1,0.4,0,0.1,0-0.1c0.8,0.1,1.7,0.3,2.3,0.4c0.4-0.9,0.8-1.7,1.2-2.6c-0.9-1.1-1.9-0.3-2.9-0.1c-0.3-0.2-0.6-0.3-0.9-0.5
		l-0.1,0.3c0.3,0,0.7,0.1,1,0.1C498.8,266.7,498,267,497.2,267.2 M232.1,401.8c0.2-1.7-1.4-1.3-2.5-2.3c-0.1,1.4-0.2,2.3-0.2,3.7
		C230.5,402.3,230.7,400.3,232.1,401.8c-0.4,1.8-0.8,3.6-1.2,5.5c0.3,0.3,0.7,0.7,1.3,1.2c0.2-1.2,0.2-2.1,0.6-2.9
		C233.5,404.1,232.9,403,232.1,401.8 M242,299.5c2.2,0.5,1.9-2.6,4.2-2.3c-1.6-1.1-1.6-1.1-4.1-1C242,297.3,242,298.4,242,299.5
		c-0.1,0-0.1,0-0.2,0C241.8,299.5,241.9,299.5,242,299.5 M543.3,314.4c0.8,0,1.6,0.1,2.7,0.2c0.4-2.7-2.3-3.2-3-5.3
		c-1,1.7,0.4,1.9,0.9,2.6C544.9,313,544.8,313.3,543.3,314.4c0,0.2-0.1,0.3-0.1,0.3C543.2,314.7,543.3,314.5,543.3,314.4
		 M538.2,264.3c-0.1-0.1-0.3-0.2-0.4-0.3C537.9,264.1,538.1,264.2,538.2,264.3c0.3,0.4,0.5,0.8,0.7,1.2c1,1.8,2.4,2.1,4.6,1
		c-1.3,0.2-2.3,0-3.1-1.2C540,264.7,538.9,264.6,538.2,264.3 M112.6,252.7c0-0.1,0-0.1,0-0.2c0,0-0.1,0-0.1,0L112.6,252.7
		c0.5,1.5-0.4,2-2,2c0.6,0.9,1,1.5,1.6,2.4c0.8-1.8,1.4-3.2,2.1-4.7C113.5,252.6,113,252.6,112.6,252.7 M503,285.6
		c-1,0.2-1-0.3-1-1.1c0.1-1.3-0.7-1.2-1.6-0.9c0,1.8,0,1.8,2.1,3.7C502.7,286.7,502.8,286.1,503,285.6c0.1,0,0.1,0,0.2,0
		C503.1,285.6,503,285.6,503,285.6 M91.2,316.2c1.3,0.1,2.5,0.2,3.8,0.3c0.2-1.5,0.2-1.5-3.5-1.6C91.4,315.3,91.3,315.7,91.2,316.2
		L91.2,316.2L91.2,316.2z M226.3,414.4c-0.7,0.1-1.4,0.2-1.9,0.3c0.4,1.1,0.7,2.1,1,3.1c0.6-0.5,1.3-1.1,1.7-1.5
		C226.8,415.5,226.5,414.9,226.3,414.4c0.9,0.4,1.9,0.7,3.1,1.2c0.1-0.5,0.2-1,0.4-1.9C228.4,413.9,227.4,414.1,226.3,414.4
		 M315.3,369.3c0.4,0.5,0.7,0.9,1,1.4c0.2-0.3,0.5-0.6,0.8-1C316.3,369.5,315.8,369.5,315.3,369.3c0.1-0.8,0.3-1.5,0.6-2.7
		c-2.1,0.9-2-2.4-4.7-1.5c2.4,0.6,3.3,1.9,3.4,3.8C314.6,369.1,315.1,369.2,315.3,369.3 M236.1,402.8c0.3-0.4,0.8-0.8,0.8-1.1
		c-0.1-0.8-0.5-1.6-0.9-2.4c-0.1-0.1-0.2-0.2-0.5-0.4c-0.4,0.6-0.8,1.2-1,1.6C235.2,401.4,235.7,402.1,236.1,402.8
		c-0.6,0.3-1.3,0.6-2,0.8c0.2,0.7,0.3,1.5,0.6,2.6C235.3,404.8,235.7,403.8,236.1,402.8 M123.1,292.7c-1.4-0.4-2,0.4-2.1,1.5
		c-0.1,1.1,0.8,1.1,1.7,0.9C122.8,294.3,122.9,293.5,123.1,292.7c0-0.2,0.1-0.3,0.2-0.6C123.2,292.5,123.1,292.6,123.1,292.7
		 M232.1,298.4L232.1,298.4L232.1,298.4c0.2,0.7,0.3,1.4,0.5,2.3c0.8-0.6,1.4-1.1,2-1.5c-0.4-0.7-0.7-1.3-1-2
		C233.1,297.6,232.6,298,232.1,298.4 M322.8,410.4v1.5c1.3-0.3,2.5-0.5,3.6-0.8c-0.4-0.9-0.8-1.6-1.7-0.9
		C324,410.8,323.5,411,322.8,410.4c0-0.1,0-0.1,0.1-0.2C322.9,410.3,322.8,410.3,322.8,410.4 M64.7,363c-0.2-0.3-0.4-0.5-0.6-0.8
		c-0.1,0.1-0.1,0.1-0.2,0.2C64.1,362.6,64.4,362.8,64.7,363c-0.2,1.7,0.8,2.2,2.4,2.2c0.2,1.9,2.8,0.9,2.8,2.9
		c0.2-0.1,0.4-0.2,0.6-0.4c-0.2-1.3-0.4-2.6-0.5-3.9c-1.2,0.6-2.1,1-2.9,1.5V363C66,363,65.3,363,64.7,363 M546.9,286.8
		c-1-0.3-2-0.6-2.9-0.9c-1.2,1.2,0.1,1.6,0.5,2.5C545.3,287.8,546.1,287.3,546.9,286.8L546.9,286.8z M509.4,259.6L509.4,259.6
		L509.4,259.6c-0.9,2.7-0.9,2.7,1.7,4.7c-0.2,0.5-0.4,1.1-0.7,1.6c0.1,0.1,0.3,0.2,0.4,0.3c0.9-0.6,1.7-1.2,2.6-1.7
		c-0.1-0.1-0.2-0.2-0.2-0.4c-0.5,0.1-1.1,0.2-1.6,0.3c-0.5-0.7-1.2-1.3-1.5-2.1C509.7,261.4,509.6,260.5,509.4,259.6 M281.4,190.7
		c-1.1,0.1-2.2,0.2-3.8,0.4C279.9,191.6,279.9,191.6,281.4,190.7c0.9,1.1,1.3,1.2,3.1,0.1C283.4,190.4,282.4,189.7,281.4,190.7
		 M116,316.4l1.1,0.3c0-0.2,0-0.4,0-0.6C116.8,316.2,116.4,316.3,116,316.4c-0.5-1.1-1-2.3-1.6-3.7c-0.9,1.3-0.9,2.2,0.1,2.9
		C115,315.9,115.5,316.1,116,316.4 M80.8,334.7c0.4-0.6,0.8-1.6,1.1-1.6c1.4,0.1,1.4-0.4,0.9-1.4C80.5,331.7,81,333.4,80.8,334.7
		l-0.1,0.1C80.7,334.8,80.8,334.7,80.8,334.7 M521.5,244.6L521.5,244.6c0.2,0.7,0.4,1.4,0.6,2.1c0.2,0,0.5-0.1,0.7-0.1
		c-0.1-1-0.2-2-0.3-3.2C522.1,244,521.8,244.3,521.5,244.6 M239,382.5c-1.9,0.7-1.9,0.7-1.1,2.7C238.3,384.1,238.6,383.3,239,382.5
		L239,382.5L239,382.5z M64,410.2c0.8-0.4,1.7-0.7,2.5-1.2c0.2-0.1,0.1-0.7,0.1-1.6C65.5,408.7,64.8,409.5,64,410.2l0,0.1L64,410.2
		 M54.8,381.6c0-0.2,0-0.4,0-0.2C54.6,381.2,54.7,381.4,54.8,381.6c0.3,0.2,0.7,0.8,0.9,0.7c1-0.3,1.4-1,1.9-2.4
		C56.3,380.7,55.5,381.2,54.8,381.6 M62.5,386.6c-0.2,0.4-0.3,0.8-0.5,1.2C62.9,387.6,63.3,387.3,62.5,386.6c0-0.2,0-0.4,0-0.5l0,0
		c0.4-0.2,0.7-0.5,1.1-0.7c-0.1-0.2-0.1-0.3-0.2-0.5c-0.8,0.1-1.5,0.1-2.3,0.2c0.1,0.7,0.2,1.2,0.3,1.7l-0.2,0l0.1-0.1
		C61.7,386.7,62.1,386.7,62.5,386.6 M546.3,217.5c-1.2,0.6-2.3,1.1-3.5,1.7c-0.2,0.3-0.4,0.6-0.6,0.9c0.1,0.1,0.3,0.1,0.4,0.2
		c0-0.4,0.1-0.7,0.1-1.1C544.1,219,545.9,219.8,546.3,217.5c0.1,0,0.1,0,0.2,0C546.4,217.5,546.3,217.5,546.3,217.5 M561.8,392.3
		c1.8,0.3,1.8-1.2,2.4-2.2c0.1-0.1,0.2-0.2,0.4-0.3c-0.1,0.1-0.2,0.3-0.3,0.4C563.1,390.5,561.9,390.9,561.8,392.3
		c-0.2,0.9-0.5,1.7-0.7,2.6c0.2,0,0.5,0.1,0.7,0.1V392.3z M382.3,349.7c0,0.2,0,0.4,0,0.6c1.4,0.4,1.3-0.7,1.6-1.5
		C382.7,348.3,382.4,348.7,382.3,349.7 M324.5,400.5h2.4c-0.9-0.9-1.3-1.3-1.9-1.8C324.8,399.5,324.6,400,324.5,400.5l-0.1,0.1
		L324.5,400.5z M116.7,286.8c0-0.1,0-0.1-0.1-0.2C116.6,286.7,116.6,286.7,116.7,286.8c0.4,0.6,0.7,1.2,1.3,2.1
		c0.2-0.9,0.3-1.4,0.4-1.8C117.8,286.9,117.2,286.9,116.7,286.8 M62.9,377.4c0.4,0,0.8,0.1,1.1,0.1c0-0.2,0-0.4-0.1-0.5
		C63.7,377.1,63.3,377.3,62.9,377.4c-0.1-0.6-0.3-1.2-0.5-2.4C61.5,376.6,61.7,377.3,62.9,377.4 M58.4,378c0,0.2,0.1,0.3,0.1,0.5
		c0.1-0.1,0.2-0.1,0.2-0.2C58.6,378.2,58.4,378.1,58.4,378c-1-0.4-1.9-0.8-2.8-1.2C56.2,378.2,57.3,378,58.4,378 M110.3,296.7
		c0.1-0.4,0.2-0.8,0.3-1.2c-0.3,0-0.7-0.1-0.8-0.1c-0.2,0.5-0.3,1-0.4,1.5C109.7,296.8,110,296.7,110.3,296.7L110.3,296.7z
		 M101.6,284.5l0-0.1L101.6,284.5l0.3,0.7c0.4-0.4,1-0.8,1.2-1.2c0.1-0.2-0.5-0.7-0.9-1.2C101.9,283.5,101.8,284,101.6,284.5
		 M80.8,367.1l0-0.1L80.8,367.1c0.1,0.9,0.4,1.7,2.2,1.3C82,367.8,81.4,367.4,80.8,367.1 M47.9,405.1c0.8-1.5,0.8-1.5-1-1.6
		C47.3,404.1,47.6,404.6,47.9,405.1L47.9,405.1z M325.8,405.8c1-0.6,1.3-1.3-0.1-2.3C325.8,404.4,325.8,405.2,325.8,405.8
		c-0.6,0.2-1.5-0.1-1.7,1C324.7,406.4,325.3,406.1,325.8,405.8 M539.4,315.1c-0.7,0.1-1.4,0.2-2.1,0.3
		C538.2,316.1,539,316.4,539.4,315.1c0.2-0.3,0.5-0.5,0.8-0.8c-0.1-0.1-0.3-0.2-0.4-0.3C539.6,314.4,539.5,314.7,539.4,315.1
		 M225.7,374.6L225.7,374.6L225.7,374.6c-0.6-1.6-0.6-1.6-1.9-1.5C224.5,373.6,225.1,374.1,225.7,374.6 M310.6,354.3
		c-0.6,0.2-1.2,0.4-1.9,0.6c0.1,0.1,0.1,0.3,0.2,0.4C309.5,355,310,354.6,310.6,354.3L310.6,354.3z M369.6,313.9L369.6,313.9l0-1.6
		c-0.7,0.4-1.1,0.7-1.8,1.1C368.6,313.6,369.1,313.8,369.6,313.9 M222.9,393.7c0-0.2,0-0.4-0.1-0.5c-0.1,0.1-0.2,0.1-0.3,0.2
		C222.6,393.4,222.8,393.5,222.9,393.7c0,0.4,0,0.9,0,1.4c0.1,0,0.3,0,0.4,0.1c0.2-0.5,0.4-1.1,0.7-1.8
		C223.4,393.5,223.1,393.6,222.9,393.7 M225.2,389c0.2,0.2,0.4,0.3,0.6,0.5c0-0.1,0.1-0.2,0.2-0.2
		C225.7,389.2,225.4,389.1,225.2,389c-0.2-0.4-0.3-0.9-0.5-1.9C223.9,388.5,224.3,388.9,225.2,389 M235.6,322.7l-0.1-0.1
		L235.6,322.7c0.2,0.5,0.4,1,0.7,1.8C236.9,323.2,236.4,322.9,235.6,322.7 M134,268.3l-0.1-0.1L134,268.3c-0.1,0.4-0.2,0.9-0.3,1.3
		C134.4,269.3,134.9,268.8,134,268.3 M39.9,409.3c0.4-0.3,0.8-0.5,1.4-1C40.1,408.1,39.8,408.5,39.9,409.3L39.9,409.3L39.9,409.3z
		 M544,263.7c0.4-0.8,0.8-1.6,1.2-2.4c1.2,0.6,1.9,2.2,3.8,1.4c0-0.8-0.1-1.6-0.1-2.5c-1.4,0.5-2.5,0.8-3.6,1.2
		C544.1,261.8,543.9,262.7,544,263.7L544,263.7L544,263.7z M238.6,331.3c0.3-0.5,0.6-0.9,0.9-1.4c-0.2-0.1-0.4-0.1-0.6-0.2
		C238.8,330.3,238.7,330.8,238.6,331.3c-0.2,0.1-0.4,0.1-0.4,0.1C238.2,331.4,238.4,331.4,238.6,331.3 M104.5,321.9
		c0.5-0.1,0.9-0.3,1.4-0.4c-0.1-0.1-0.1-0.3-0.2-0.4C105.3,321.4,104.9,321.7,104.5,321.9l-0.1,0.1
		C104.4,322.1,104.5,321.9,104.5,321.9 M516.8,220.3L516.8,220.3c-0.1-0.2,0-0.5-0.2-0.8c-0.1-0.2-0.4-0.2-0.6-0.4
		c0,0.3-0.1,0.7,0,0.9C516.2,220.3,516.6,220.3,516.8,220.3 M244.3,199c0.1,0.7,0.1,1.5,1.6,0.9C245.1,199.5,244.7,199.3,244.3,199
		c-0.2-0.3-0.4-0.7-0.6-1c-0.2,0.2-0.3,0.4-0.5,0.5C243.5,198.7,243.9,198.9,244.3,199 M33.5,420.2c0.4,0.1,0.8,0.2,1.1,0.3
		c0-0.1,0-0.3,0-0.4C34.2,420.1,33.8,420.1,33.5,420.2c-0.1,0-0.1,0-0.2,0C33.4,420.2,33.4,420.2,33.5,420.2 M549.8,204.2
		c0.1,0.4,0.3,0.7,0.4,1.1c0.1-0.1,0.3-0.2,0.4-0.2C550.3,204.8,550,204.5,549.8,204.2c0.1-0.2,0.2-0.5,0.4-0.8c-0.2,0-0.3,0-0.5,0
		C549.7,203.6,549.7,203.9,549.8,204.2 M108,260.7c0.3-0.2,0.6-0.4,0.9-0.5l-0.4-0.3C108.3,260.2,108.1,260.5,108,260.7l0,0.1
		L108,260.7z M154.7,398.9c0,0,0.1,0.1,0.1,0.1C154.7,399,154.7,398.9,154.7,398.9c-0.4-0.1-0.8-0.2-1.2-0.3c0,0.1-0.1,0.2-0.1,0.3
		C153.8,398.9,154.2,398.9,154.7,398.9 M66.4,391.9c-0.1-0.1-0.2-0.3-0.3-0.4c0,0.1-0.1,0.2-0.1,0.3
		C66.1,391.8,66.3,391.8,66.4,391.9c0.3,0.2,0.6,0.5,0.8,0.7c0.1-0.2,0.2-0.3,0.3-0.5C67.2,392.1,66.8,392,66.4,391.9 M282.4,305.8
		h1.3c0-0.1,0-0.3-0.1-0.4C283.2,305.5,282.8,305.7,282.4,305.8l-0.1,0.1L282.4,305.8z M528.9,222h1.1c0-0.1-0.1-0.3-0.1-0.4
		C529.6,221.7,529.2,221.9,528.9,222l-0.1,0.1L528.9,222z M229.3,378.1L229.3,378.1L229.3,378.1c0,0.3-0.1,0.7-0.2,1
		c0.1,0,0.2,0,0.3,0C229.3,378.7,229.3,378.4,229.3,378.1 M560.8,312.7c0,0,0.1,0.1,0.1,0.1C560.8,312.8,560.8,312.8,560.8,312.7
		c-0.4-0.2-0.7-0.4-1-0.7c-0.1,0.2-0.1,0.3-0.2,0.5C559.9,312.6,560.4,312.7,560.8,312.7 M90.1,331.8h-1.1c0,0.1,0.1,0.3,0.1,0.4
		C89.4,332.1,89.7,331.9,90.1,331.8c0.1-0.1,0.2-0.2,0.4-0.3C90.3,331.6,90.2,331.7,90.1,331.8 M388,365.9c0.1,0,0.3,0.1,0.4,0.1
		C388.3,366,388.1,366,388,365.9c-0.3-0.2-0.5-0.4-0.7-0.6c-0.1,0.2-0.1,0.3-0.2,0.5C387.4,365.8,387.7,365.8,388,365.9 M541,236.1
		C541.1,236.1,541.1,236.1,541,236.1c0.1,0.4,0.2,0.8,0.3,1.3c0.1-0.1,0.3-0.1,0.4-0.2C541.6,236.8,541.3,236.4,541,236.1
		 M483.4,318.1c-0.4,0.1-0.7,0.2-1.1,0.3c0,0.1,0.1,0.2,0.1,0.3C482.8,318.5,483.1,318.3,483.4,318.1l0-0.1L483.4,318.1z
		 M493.1,241.7c-0.2,0.5-0.3,1.1-0.5,1.6l0.4,0C493.1,242.8,493.1,242.3,493.1,241.7c0.2-0.1,0.5-0.2,0.2-0.1
		C493.5,241.4,493.3,241.6,493.1,241.7 M255.8,286.2c-0.2,0.2-0.5,0.4-0.7,0.6c0.1,0,0.1,0.1,0.2,0.1
		C255.4,286.7,255.6,286.4,255.8,286.2c0.3-0.2,0.6-0.3,0.9-0.4c-0.1-0.1-0.1-0.2-0.2-0.3C256.2,285.7,256,286,255.8,286.2
		 M430.7,335.8c-0.5,0.7-0.4,1.2,0.7,1.6C431.1,336.7,430.9,336.3,430.7,335.8l0.1,0L430.7,335.8z M529.6,329.5
		c-0.2,0-0.3-0.1-0.5-0.1C529.3,329.4,529.5,329.4,529.6,329.5c0.3,0,0.5,0,0.8,0C530.1,329.5,529.8,329.5,529.6,329.5 M129.4,285.6
		L129.4,285.6L129.4,285.6c-0.3-0.1-0.6-0.3-0.9-0.4c0,0.1-0.1,0.2-0.1,0.4C128.7,285.5,129,285.6,129.4,285.6 M356.3,283.3
		c0.2-0.2,0.4-0.4,0.6-0.6c-0.1-0.1-0.2-0.2-0.4-0.3C356.5,282.7,356.4,283,356.3,283.3c0,0.1,0,0.2,0,0.2
		C356.2,283.4,356.3,283.4,356.3,283.3 M547.5,316.9c-0.2,0-0.5-0.1-0.7-0.1c0,0.1,0.1,0.3,0.1,0.4
		C547.1,317.1,547.3,317,547.5,316.9l0-0.1L547.5,316.9z M537,236L537,236L537,236c-0.1-0.2-0.1-0.4-0.1-0.1
		C536.8,235.6,536.9,235.8,537,236 M89.5,313.9c0,0.1,0,0.2,0,0.2c0,0,0.1,0,0.2,0C89.7,314.1,89.6,314,89.5,313.9
		c-0.1-0.3-0.2-0.6-0.2-0.9c-0.1,0.1-0.2,0.1-0.4,0.2C89.1,313.4,89.3,313.6,89.5,313.9 M57.2,369.4L57.2,369.4l0,0.1
		C57.3,369.8,57.2,369.6,57.2,369.4 M115.5,289.8c-0.2,0.1-0.3,0.1-0.5,0.2c0.1,0.1,0.2,0.2,0.3,0.3
		C115.3,290.1,115.4,289.9,115.5,289.8c0-0.2,0.1-0.3,0.3-0.5C115.7,289.5,115.6,289.7,115.5,289.8 M117.7,309.7l0.9-0.4
		c-0.1-0.2-0.3-0.4-0.4-0.5C118.1,309.1,117.9,309.5,117.7,309.7l0,0.1L117.7,309.7z M550.3,275.7c0.1-0.2,0.3-0.5,0.4-0.7l-0.3-0.1
		C550.4,275.2,550.4,275.5,550.3,275.7l0,0.1L550.3,275.7z M337.8,308.1c-0.3,0.3-0.5,0.5-0.8,0.8c0.1,0.1,0.3,0.2,0.4,0.3
		C337.5,308.8,337.6,308.5,337.8,308.1L337.8,308.1L337.8,308.1z M254,271.7c-0.2,0.3-0.4,0.5-0.6,0.8c0.1,0.1,0.3,0.1,0.4,0.2
		C253.8,272.3,253.9,272,254,271.7c0.1-0.1,0.3-0.1,0.4-0.2C254.3,271.6,254.1,271.6,254,271.7 M503,221.4l0,0.1L503,221.4
		c0,0-0.1-0.1-0.2-0.1c0-0.1,0-0.2,0-0.2C502.9,221.2,502.9,221.3,503,221.4 M240.2,293.7c0-0.1,0-0.1-0.1-0.2c0,0-0.1,0-0.1,0
		C240.1,293.6,240.2,293.6,240.2,293.7c0.1,0.3,0.1,0.7,0.1,1c0.1,0,0.2-0.1,0.4-0.1C240.5,294.3,240.4,294,240.2,293.7
		 M493.9,216.3c-0.1,0-0.2,0-0.2,0c-0.1,0-0.1,0-0.2,0C493.6,216.2,493.7,216.2,493.9,216.3c0.1,0.3,0.2,0.7,0.3,1
		c0.1-0.1,0.2-0.1,0.4-0.2C494.3,216.9,494.1,216.6,493.9,216.3 M526,207h0.9c0-0.1,0-0.2-0.1-0.3C526.5,206.8,526.3,206.9,526,207
		c-0.1,0.4-0.2,0.8-0.3,1.2c0.1,0,0.2,0.1,0.3,0.1V207z M393.2,419L393.2,419c-0.2-0.4-0.4-0.8-0.6-1.2c0-0.4,0-0.8,0-1.1
		c0.1-0.1,0.2-0.3,0.3-0.4c-0.1,0.2-0.1,0.3-0.2,0.5l-0.9,0.6c0.3,0.2,0.6,0.3,0.9,0.5C392.9,418.2,393,418.6,393.2,419 M74,389.7
		c-0.4,0.1-0.9,0.3-1.3,0.4c-0.3,0.6-1.8-0.2-1.3,1.6c0.5-0.7,0.9-1.1,1.2-1.6C73.1,389.9,73.5,389.8,74,389.7l0.1-0.1L74,389.7z
		 M73.4,386L73.4,386c-0.2-0.2-0.3-0.4-0.4-0.6c0,0.1-0.1,0.1-0.1,0.2C73,385.8,73.2,385.9,73.4,386 M552,362.9
		c0.2-0.1,0.3-0.2,0.5-0.2C552.3,362.8,552.2,362.9,552,362.9c0,0.1-0.1,0.2-0.1,0.2c0,0,0,0.1,0,0.1
		C551.9,363.1,551.9,363,552,362.9 M70.4,341.1L70.4,341.1L70.4,341.1C70.4,341.1,70.4,341.1,70.4,341.1 M308.3,333.7L308.3,333.7
		L308.3,333.7C308.3,333.4,308.2,333.2,308.3,333.7C308.1,333.2,308.2,333.4,308.3,333.7 M213.1,327.8c0-0.2-0.1-0.3-0.1-0.5
		c-0.1,0.1-0.2,0.2-0.3,0.2C212.8,327.6,213,327.7,213.1,327.8c0.2,0,0.3,0.1,0.5,0.2C213.4,327.9,213.2,327.9,213.1,327.8
		 M309.5,323.7L309.5,323.7c-0.2,0-0.3-0.1-0.5-0.2C309.2,323.6,309.4,323.7,309.5,323.7 M503,318.5c0.1-0.1,0.2-0.2,0.4-0.3
		C503.2,318.3,503.1,318.4,503,318.5l-0.1,0.1L503,318.5z M341.9,304.8c0,0.4-0.1,0.8-0.1,1.2c-0.3,0.7-0.7,1.3-1.1,2.3
		c1.1-0.3,2-0.5,3-0.8c-0.4-0.6-0.7-0.6-1-0.8c-0.3-0.2-0.6-0.5-0.9-0.7C341.8,305.6,341.9,305.2,341.9,304.8l0.1-0.1L341.9,304.8z
		 M95.8,301.8c0,0.2-0.1,0.3-0.1,0.5C95.7,302.1,95.8,301.9,95.8,301.8L95.8,301.8z M285.3,302.4
		C285.4,302.3,285.4,302.2,285.3,302.4C285.4,302.2,285.4,302.3,285.3,302.4L285.3,302.4L285.3,302.4z M254.7,300
		c0-0.1,0.1-0.1,0.1-0.2C254.7,299.9,254.7,300,254.7,300l-0.1,0.1L254.7,300z M251.2,273.6l-0.5,0.2c0.1,0.1,0.2,0.2,0.3,0.3
		C251.1,273.9,251.2,273.7,251.2,273.6c0-0.1,0.1-0.1,0.1-0.2c0,0,0-0.1,0-0.2C251.3,273.3,251.3,273.4,251.2,273.6 M536.5,268.9
		c-0.1,0.1-0.2,0.2-0.3,0.3C536.3,269.1,536.4,269,536.5,268.9c0.1,0,0.1,0,0.1-0.1C536.6,268.9,536.5,268.9,536.5,268.9 M107.4,255
		c0.1-0.1,0.3-0.1,0.4-0.2c-0.1-0.1-0.1-0.2-0.2-0.2C107.6,254.7,107.5,254.9,107.4,255L107.4,255z M116,249.2c0.2,0,0.3,0,0.5-0.1
		c-0.1-0.1-0.1-0.2-0.2-0.3C116.3,248.9,116.2,249.1,116,249.2c0,0.1,0,0.2-0.1,0.3C116,249.4,116,249.3,116,249.2 M538.9,241.3
		c-0.2,0-0.3,0.1-0.5,0.1c0,0,0,0.1,0,0.2C538.6,241.5,538.7,241.4,538.9,241.3c0-0.2,0.1-0.3,0.1-0.5
		C539,241,538.9,241.2,538.9,241.3 M492,238.2c0.2,0,0.3,0,0.5-0.1c-0.1-0.1-0.1-0.2-0.2-0.3C492.2,238,492.1,238.1,492,238.2
		l-0.1,0.1L492,238.2z M543.4,223.2c0.1,0,0.3-0.1,0.3-0.1C543.6,223.1,543.5,223.2,543.4,223.2L543.4,223.2z M540.5,212.8l0.8,0
		c0.4,0.6,0.9,1.2,1.3,1.8c0.2-0.1,0.4-0.2,0.6-0.2c-0.1-0.6-0.2-1.3-0.3-1.9l-0.1-0.1l0.1,0.1c-0.3,1.1-0.8,1.5-1.7,0.5
		C541,212.8,540.7,212.8,540.5,212.8l0,0.1L540.5,212.8z M299,215.8L299,215.8L299,215.8C299,215.8,299,215.8,299,215.8 M503,256.7
		l0.1,0.2L503,256.7l-0.1-0.1C502.8,256.6,503,256.7,503,256.7 M352.2,272.3L352.2,272.3c0,0.1,0,0.2,0,0.2
		C352.2,272.5,352.2,272.4,352.2,272.3 M344.7,274.6c0,0,0.1-0.1,0.1-0.1C344.8,274.6,344.8,274.6,344.7,274.6l-0.1,0.1L344.7,274.6
		z M366.8,278.2l0.1-0.1C366.8,278,366.8,278.2,366.8,278.2l-0.1,0L366.8,278.2z M252.9,280.5L252.9,280.5c-0.1,0-0.1-0.2-0.2-0.3
		c0,0,0,0.1,0,0.1C252.8,280.4,252.8,280.4,252.9,280.5 M432.5,281l0-0.1C432.6,280.9,432.5,281,432.5,281c0,0-0.1,0-0.1,0
		C432.4,281.1,432.5,281,432.5,281 M174.4,283.9L174.4,283.9L174.4,283.9C174.3,283.8,174.4,283.9,174.4,283.9 M497.7,286.9
		L497.7,286.9L497.7,286.9C497.6,286.9,497.7,286.9,497.7,286.9 M548.6,295.4L548.6,295.4C548.7,295.4,548.6,295.4,548.6,295.4
		l-0.1,0.1L548.6,295.4z M505.9,296.5c0.2,0.2,0.4,0.4,0.7,0.6c0.2,0.1,0.4,0.2,0.2,0.1c0.2,0.1,0,0-0.3-0.1
		C506.3,297,506,296.8,505.9,296.5L505.9,296.5L505.9,296.5 M533,302.9c0.1,0,0.2,0,0.2-0.1c0,0,0-0.1,0-0.2
		C533.2,302.8,533.1,302.9,533,302.9c0,0.1,0,0.2-0.1,0.2C532.9,303.1,533,303,533,302.9 M313,305.2c0.2,0.2,0.4,0.4,0.6,0.6
		c1.2,0.8-0.3,2.9,1.7,3.4v-3.1c-0.4-0.1-0.6-0.2-0.9-0.3c-0.3,0-0.6,0-0.8,0L313,305.2c-0.1,0-0.1,0-0.2-0.1
		C312.9,305.1,312.9,305.2,313,305.2 M213.7,317.9l0,0.2L213.7,317.9l-0.1-0.1C213.6,317.8,213.7,317.9,213.7,317.9 M231,318.6
		C231,318.6,231,318.5,231,318.6L231,318.6L231,318.6z M541.7,321.4l0.1,0.2L541.7,321.4C541.7,321.4,541.7,321.4,541.7,321.4
		 M536.5,323.8c0.2,0,0.4-0.1,0.6-0.1c1.1,0.6,2.2,0.7,3.5,0.2c-1.3-1.5-2.4,0-3.5-0.2C536.9,323.8,536.7,323.8,536.5,323.8
		L536.5,323.8L536.5,323.8z M220,324.3c0.1,0,0.1,0,0.2,0.1C220.1,324.4,220,324.4,220,324.3l-0.1-0.1
		C219.8,324.3,220,324.4,220,324.3 M114.3,326l0.1,0C114.4,326,114.4,326,114.3,326c-0.2,0.2-0.4,0.4-0.6,0.6
		c-1.8,0.7-1.8,0.7-0.6,2c0.2-0.7,0.4-1.4,0.6-2C113.9,326.4,114.1,326.2,114.3,326 M93.6,336.5c0.1-0.1,0.1-0.3,0.2-0.4
		C93.7,336.2,93.6,336.3,93.6,336.5l-0.3,0.4C93.4,336.7,93.5,336.6,93.6,336.5 M73.4,344c0.2-0.2,0.3-0.4,0.5-0.6
		c0.9,0.4,1.7,0.9,3.1,1.6c-0.6-1.3-1-2-1.5-3c-0.6,0.5-1.1,1-1.6,1.4C73.8,343.6,73.6,343.8,73.4,344c0,0.1-0.1,0.1-0.2,0.1
		C73.3,344.1,73.3,344,73.4,344 M319.3,351.4c0-0.1,0-0.1,0.1-0.2C319.4,351.4,319.4,351.4,319.3,351.4c0,0.1,0,0.1-0.1,0.2
		C319.3,351.6,319.3,351.5,319.3,351.4 M94.1,367c0.2,0.2,0.4,0.4,0.6,0.7c0.2,0.2,0.4,0.3,0.5,0.5c-0.2-0.1-0.4-0.3-0.6-0.4
		C94.5,367.5,94.3,367.2,94.1,367C94.1,367,94.1,367,94.1,367 M318.2,374.5L318.2,374.5c-0.2,0-0.4,0-0.6,0
		c-0.7,0.5-1.7-1.2-2.6,0.7c1.1-0.3,1.9-0.5,2.6-0.8C317.7,374.5,318,374.5,318.2,374.5 M52.5,379.3L52.5,379.3L52.5,379.3l0-0.2
		C52.5,379.1,52.5,379.3,52.5,379.3 M87.2,383.2c0.1-0.1,0.1-0.1,0.2-0.2C87.3,383.1,87.2,383.1,87.2,383.2l0,0.1L87.2,383.2
		 M225.8,403.4c0-0.2,0-0.4,0-0.6c-0.2-1-0.7-2-0.7-3c0-1.7-0.7-2.3-2.5-1.9c2.2,1,1.7,2.7,1.2,4.4c0.9,0.2,1.5,0.3,2.1,0.5
		C225.9,403,225.9,403.2,225.8,403.4c-0.2,0.2-0.4,0.5-0.6,0.7c-0.4,0.4-0.8,0.8-1.2,1.2c-0.7-0.2-1.4-0.5-2-0.7
		c-1.3-0.5-2.7-1-4.1-1.5c-0.3,1.6-2,3.2-0.3,5.2c0.4-0.6,0.7-1.2,1.1-1.7c1.5,0.8,1.7,2.9,3.7,1.9c-0.1-1.4-0.3-3.1,1.8-3.4
		c0.3,0.3,0.6,0.7,1,1c0.1-0.5,0.3-0.9,0.3-1.4c0-0.2-0.1-0.5-0.2-0.8C225.4,403.8,225.6,403.6,225.8,403.4 M148.4,406.3l0.1,0.1
		L148.4,406.3l-0.1,0C148.3,406.3,148.4,406.3,148.4,406.3 M36.9,408L36.9,408C37,407.9,37,408,36.9,408l-0.6,0.7
		c-0.8,0.1-1.7,0.1-1.6,1.2c0,0.4,0.6,0.7,1,1.2c0.2-1,0.4-1.7,0.5-2.3C36.5,408.4,36.7,408.2,36.9,408 M554.4,410.3L554.4,410.3
		c-0.1,0-0.2-0.1-0.2-0.1C554.2,410.3,554.3,410.3,554.4,410.3 M71.6,411.5c0.2-0.2,0.4-0.4,0.5-0.6l0.2-0.7c-0.1,0-0.3,0-0.4,0
		c0.1,0.2,0.2,0.5,0.3,0.7C72,411.1,71.8,411.3,71.6,411.5L71.6,411.5L71.6,411.5z M45.7,416.6l0,0.1L45.7,416.6l-0.1,0
		C45.6,416.5,45.7,416.6,45.7,416.6 M565.3,382.7c0.8,0.4,1.5,0.8,1.4,1.9c0,0.9,0.2,1.7,0.2,2.6c0.2,6.2,0.4,12.5,0.7,18.7
		c0.2,4.3,0.6,8.6,0.9,12.9c0.1,1.3,0,2.7,0,4.1c-2.6,0.1-0.6-1.8-1.3-2.7c-0.5,0.9-0.9,1.8-1.5,2.9h-45c-1.6,2.9-2.5,5.8-3.3,8.8
		c-0.4,1.5-1,2.9-1.8,4.2c-1.4,2.1-3.5,3-6,2.6c-2.5-0.4-4.2-1.9-5-4.3c-1-3.1-2.2-6.2-1.9-9.6c0-0.5-0.1-0.9-0.2-1.5h-3.4
		c-0.1,3-0.5,5.8,0.4,8.6c1.6,4.6,1.2,9.4,0.6,14c-0.4,2.8-0.7,5.5-0.7,8.3c0,3.2,0.2,6.4,0,9.5c-0.3,4.5-4.5,7.2-8.4,5.5
		c-2.7-1.1-3.9-3.3-3.9-6.2c-0.2-8.8-0.4-17.7-0.5-26.5c0-2.3-0.3-4.5-1.3-6.7c-0.9-2-1.3-4.2-2-6.7c-13.2-0.2-26.5-0.3-40.2-0.5
		c-8.8-23.3-17.5-46.6-26.3-69.9c-0.9-2.4-1.7-4.9-2.6-7.3c-1.3-3.3-3.2-6.1-5.8-8.5c-6.1-5.9-13.9-4.2-17.4,1c-0.3,0.4-0.7,0.7-1,1
		c-0.2-0.6-0.4-1.2-0.5-1.8c-0.2,0.1-0.4,0.2-0.6,0.3c0.4,0.5,0.8,1,1.1,1.5c-0.2,0.7-0.3,1.5-0.6,2.2c-1.1,3.3-1.2,6.6-0.1,9.9
		c0.7,2,0.7,4.2,1.6,6.2c0.9,2,1.2,4.2,1.7,6.4c3.6,15.6,7.2,31.3,10.7,46.9c0.6,2.8,0.6,2.8-1.8,4.4c0.8,0.1,1.4,0.1,2,0.2
		c-0.3,0.9-0.6,1.9-0.9,2.9l0,0c0.1,0.4,0.1,1,0.3,1.1c0.6,0.2,1.2,0.1,2.3,0.2c-1.9,2-3,3.9-5.9,3.6c-3.5-0.3-7.1-0.1-10.6-0.1
		c-1.4,0-2-0.5-2.3-1.9c-4.4-16.2-8.9-32.4-13.3-48.6c-1.2-4.3-2-8.8-3.3-13.1c-2-7-3.9-14-6.3-20.8c-3-8.5-9.7-12.7-18.4-13.6
		c-4.5-0.4-8.7,1.1-12.4,3.7c-2.2,1.6-4.3,3.2-6,5.2c-1.3,1.5-1.9,3.7-2.8,5.6c-0.7,1.4-1.3,2.8-1.9,4.1c0,0-0.1,0.1-0.1,0.1
		l0.1-0.2c0.2,0.4,0.5,0.8,0.5,1.3c-0.1,3.5-0.3,7.1-0.5,10.9c-0.4,0.1-1.1,0.3-1.8,0.5c0,0.1,0,0.3,0,0.4c0.7,0.2,1.5,0.3,2.4,0.5
		c-0.1,0.4-0.5,1-0.4,1.4c1.8,4.2,1.6,8.8,2.2,13.2c1,7.7,1.8,15.4,2.8,23.1c0.2,1.9-0.4,3.8,0.5,5.6c0.1,0.2-0.7,1-1,1.5
		c0,0-0.1,0-0.1,0c0.1,0,0.1,0,0.2-0.1c0.4,0.3,1.2,0.5,1.2,0.8c0.5,3.1,1.2,6.2,0.2,9.4c-0.4,1.2-0.4,2.5,0.9,3.5
		c0.4,0.3,0.6,1.2,0.5,1.7c-0.3,1.6-0.9,3.2-1.4,5.1h-5.7c0.1-1,0.2-1.8,0.2-2.6c-2.1-0.3-1.3,1.4-1.6,2.3c-0.5,0.2-1.1,0.5-1.6,0.5
		c-3.6-0.5-7.2,0.1-10.8,0c-3,0-3.6-1-3.1-5.1c1.4,0.4,2.8,0.9,4.2,1.3c-0.2-1.9-0.2-1.9-3-2c0.1-1.5,0.3-3,0.4-4.5
		c0.2-0.3,0.5-0.5,0.7-0.8c-0.1-0.1-0.3-0.1-0.4-0.2c-0.1,0.3-0.2,0.7-0.3,1c-2.5-0.3-2.6-0.3-2.8-2.4c-0.2-1.6-0.2-3.2-0.3-4.9
		c0.7-0.3,1.3-0.4,2.6-0.9c-2.8,0.2-3-1.1-3.1-2.7c0-2.5-0.2-4.9-0.3-7.4c0-0.9,0.3-1.7,0.4-2.7c-2.3-0.8-0.9-3-1.5-4.7
		c0.9-0.4,1.7-0.7,2.5-1.1c0-0.1-0.1-0.2-0.1-0.3h-2.3c-0.2-0.9-0.4-1.7-0.5-2.5c-0.7-6.6-1.5-13.2-2.2-19.8
		c-0.1-0.6-0.1-1.1-0.1-1.7c-0.5-7.8-1.7-15.6-2.9-23.3c-0.5-3.1-1.2-6.4-2.9-8.9c-1.9-2.8-4.5-5.5-7.7-7.3c-0.7-0.4-1.3-1.2-2.2-2
		c-0.5-0.1-1.5,0-2.3-0.3c-8.9-3.7-17.1-2.1-24.8,3.3c-3.2,2.2-5.6,4.9-7.6,8.1c-2.1,3.4-3.4,7.1-4.2,11c-0.7,3.2-1.9,6.4-1.6,9.5
		c0.2,2.6-0.1,5.1-0.2,7.7c-0.3,6-0.7,11.9-1.2,17.8c-0.1,1.5-1.3,3.1-0.9,4.4c0.5,1.6,0.2,3,0.1,4.5c-0.2,1.8-0.6,3.5-0.3,5.4
		c0.2,1.6-0.3,3.2-0.4,4.9c-1.8,0.3-2.4-1.4-3.6-1.7c-1.2-0.3-2.5-0.3-3.9-0.5c-0.2,0.4-0.4,0.8-0.6,1.3c0.9,0.4,1.7,0.7,2.5,1.1
		c1.8-1.5,1.7-1.4,2.3,0.8c0.2,0.7,1,1.2,1.6,1.9c0,0.2,0.1,0.4,0.1,0.5c-0.1-0.2-0.1-0.3-0.2-0.5c1.1-0.1,1.4,0,1.4,0.7
		c-0.2,1.7-0.5,3.5-0.8,5.2c-0.1,0.6,0,1.1-0.1,1.7c-0.2,1.3,0.2,2.8-0.7,4l0,0c-0.5-0.2-0.9-0.4-1.5-0.6c-0.1,1.1-0.2,2.1-0.3,3.3
		c1.2,0.1,1.9,0.9,1.9,2.3c-0.1,2,0,4-0.1,6c0,0.2-0.3,0.3-0.9,0.8c0.1-1.2,0.1-2,0.2-3.1c-1.9,0.6-3.7,0.7-4.9,2.3
		c-0.3,0.4-1.2,0.7-1.8,0.7c-4.6,0-9.2,0-13.8,0c-1.7,0-2.2-0.9-1.9-2.4l-0.1,0.1c1.2,0,2-0.3,1.6-1.9c-0.1-0.5,0.5-1.2,0.7-1.7
		c1.8,0.2,0.5,3.5,3.3,2c-1.1-0.7-2.1-1.3-1.8-2.7c0.1-0.3-0.4-0.9-0.7-1.1c-1.2-0.9-2.4-1.6-3.7-2.4c0.4-3.6,0.8-7.1,1.2-10.6
		c0.5-4.3,1-8.6,1.5-12.8c0.4-3.2,0.8-6.5,1.2-9.7c0.1-0.4,0.4-0.8,0.6-1.2c0.4,0.6,0.6,1.6,2.1,1c-0.9-0.4-1.6-0.6-2.2-0.9
		c-0.1-0.4-0.4-0.7-0.3-1.1c0.4-3.4,0.8-6.8,1.2-10.3c0.9-0.7,2.8,0.3,2.9-1.9c-0.5,0.1-1,0.2-1.5,0.3c-1.1-1-1.1-2.3-0.9-3.7
		c0.4-3.1,0.7-6.3,0.9-9.4c0.2-3.5-0.7-6.9-1-10.3c-0.4-5.1-3.9-7.7-7-10.7c-3.6-3.4-7.9-5.6-12.9-5.9c-6.8-0.4-16.3,2.9-20.4,12.8
		c-0.7,1.6-1.2,3.3-1.7,4.9c-3.6,13-7.2,25.9-10.7,38.9c-1.6,5.9-3.3,11.9-4.8,17.8c-0.5,2-1.1,3.7-3.7,3.4c-0.2,0-0.5,0.5-0.8,0.7
		c0.9,0.8,1.8,1.6,2.7,2.4c-0.7,1.9-0.3,3.9-2.5,4.6c-0.3,0.1-0.6,1.2-0.4,1.7c1.1,2.5,0.1,4.5-1.4,6.4c-0.3,0.4-1,0.9-0.9,1.3
		c0.2,2.1-1.2,2.2-2.6,2.2c-2.9,0.1-5.8,0-8.7,0c-2.3,0-4.6-0.1-7.2-0.1c0.6-2.9,1.2-5.4,1.8-7.9c3.9-17,7.7-33.9,11.6-50.9
		c1-4.2,2.2-8.4,3.2-12.6c0.7-2.7,0.9-5.5,0.2-8.3c-1.8-7.4-9.1-10.9-16-7.6c-2.7,1.3-5,3.4-6.5,6c-1.3,2.3-2.6,4.7-3.5,7.2
		c-6,15.9-12,31.9-18,47.8c-3,8-6.2,16-9.2,24c-0.6,1.6-1.4,2.2-3.1,2.2c-9.6-0.1-19.2-0.1-28.8-0.1c-1.2,0-2.6,0.2-3-1.7
		c-3.6,2.4-7.5,1.6-11.4,1.3c-1.4-0.1-2.8,0.3-4.2,0.3c-5.6,0-11.2,0-16.7-0.1c-1.8,0-3.5-0.1-5.5-0.2c0.1-0.4,0.2-0.8,0.3-1.4
		c-0.8,0.1-1.4,0.1-2.3,0.2c0-0.5-0.2-1.1,0-1.4c0.3-0.4,1.2-0.9,1.1-1c-1.6-2.9,1.7-3,2.6-4.4c-0.7-2.8-0.6-3,1.8-4.7
		c0.4-0.3,0.6-0.9,0.7-1.4c0.5-4.3,2-5.7,6.3-5.2c0,0,0,0.1,0,0.1c0-0.1,0-0.1,0-0.2c-0.3-0.3-0.5-0.6-0.8-0.8
		c-1.4-0.9-1.9-2-1.1-3.6c1.1-2.2,2.2-4.5,3.3-6.7c0.8-1.5,1.8-3,2.8-4.5c0.6,0.4,1.4,0.9,2.3,1.6c-0.6,0.8-1.1,1.6-1.7,2.5
		c0.8,1.1,1.6,2.3,2.5,3.5c0.6-0.3,1.3-1.1,0.5-1.6c-1.3-0.8-0.6-1.9-0.9-2.8c-0.3-1.1-0.1-2.3-0.1-3.6h3.6c-0.4-0.6-0.7-0.9-1-1.2
		c-0.4-0.3-0.8-0.5-1.2-0.8c-1.3,0.1-1.8,2.6-3.9,0.8c1-1.6,2-3.2,2.9-4.8c0.3,0.1,0.5,0.2,0.8,0.3c0-0.1,0.1-0.3,0.1-0.4
		c-0.3,0-0.6,0.1-0.9,0.1c1.9-3.9,3.9-7.7,5.8-11.6c0.8-1.5,2.2-1.3,3.5-1.3c0.1,0.1,0.2,0.2,0.3,0.4c-0.1-0.1-0.3-0.2-0.4-0.3
		c0.4-0.8,0.4-1.9,2-1.2c0.9,0.4,2.2-0.1,3.1-0.1c-0.3-0.5-0.7-0.8-0.7-1.2c-0.1-2.1-0.4-2.5-2.6-3.2c0,0,0-0.1,0-0.1l0.1,0.1
		c0.1,0.4,0.4,1,0.2,1.3c-0.4,0.7-1.1,1.3-1.7,2c-0.4-0.1-0.8-0.3-1.5-0.6c1.2-2.3,2.3-4.5,3.4-6.6c1.1,0.1,2.1,0.2,3,0.3
		c-0.2,1-0.2,1.8,1.2,2c0.7-1.5,0.3-2.1-1.3-2c-1.2-2.1,0.7-2.6,1.8-3.5l0,0c2.1-0.3,2.4-2,2.9-3.5c0.3-0.1,0.7-0.2,1-0.3
		c-0.1-0.1-0.2-0.3-0.3-0.4c-0.2,0.2-0.5,0.5-0.7,0.8c-0.8,0-1.2-0.4-1.2-1.2c0,0,0.1-0.1,0.1-0.1l-0.1,0.1
		c-0.7,0.2-1.4,0.4-2.6,0.7c0.9-1.8,1.5-3.2,2.3-4.5c1.6-2.9,3.4-5.7,5-8.6c0.8-1.4,1.2-2.9,1.9-4.4c0.7-1.5,1.5-2.8,3.3-3.3
		c0.6-0.2,1.1-0.9,1.7-1.4c0.1-0.1,0.3-0.2,0.4-0.3c-0.1,0.1-0.2,0.3-0.4,0.4c-0.4-2.3-0.8-4.5,1.2-6.3l-0.1,0
		c0,0.6-0.1,1.3-0.1,2.3c1.7-0.2,3.2-0.3,4.8-0.5l0-0.1c0.2,0,0.4,0,0.7,0l0,0c0.8,0,1.6-0.1,2.4-0.1c-0.2,0.5-0.4,1-0.5,1.5
		c-0.1,0.4,0,0.9,0,1.6c1.2-1.1,1.8-2,0.5-3c0.2-0.7,0.4-1.4,0.6-2.3c-0.5,0-0.9-0.1-1.3-0.1c-2,0-2,0-1.9-2c0-0.6,0-1.5-0.4-1.8
		c-1.7-1.2-1.3-2.6-0.5-4c2.9-4.7,5-9.8,7.7-14.6c2.2-3.9,4.2-7.9,6.3-11.9c0.6-1.2,1.2-2.2,2.8-2.3c0.6,0,1.2-1,1.8-1.5
		c-0.1-0.2-0.2-0.4-0.4-0.5c-0.6,0.3-1.1,0.5-2,1c0.5-2.3-0.1-4.5,1.6-6.1c0.1,0,0.2,0,0.3,0c-0.1,0-0.1,0-0.2,0
		c-1,0.3-1.2-0.3-1.2-1c0-2.6-0.2-5.2-0.1-7.8c0.1-1.9-0.2-3.6-1.6-5c0.1-0.2,0.3-0.4,0.1-0.2c0.1-0.2,0,0-0.1,0.2
		c-2.3-0.8-4.7-2.4-7.1-4.7c0.9-0.4,1.7-0.8,2.8-1.3c0.2,2.2,1.5,2.6,3.2,2.4c0.2,0.6,0.3,1.1,0.5,1.9c0.9-1.4,0.1-1.6-0.6-1.9
		c0.2-0.4,0.4-0.8,0.5-1.2c1,0.4,1.7,1,2.5,1c0.5,0,1.1-0.7,1.5-1.2c1.2-1.7,1-2.6-1.1-3.7c2.6-1.1,5-2,7.3-3c0.7-0.3,1.3-0.6,2-0.8
		c0.7-0.3,1.1,0,1.1,0.8c-0.3,0.2-0.6,0.5-0.9,0.7l0.3,0.2l0.5-1c1.3-0.9,2.4-2.2,3.9-2.8c25.5-10.4,51.1-20.7,76.7-31
		c23.7-9.6,47.4-19.2,71.1-28.7c4.3-1.7,8.5-3.4,12.8-5.1c0.3-0.1,0.8-0.4,1.1-0.3c2.5,1.4,3.8-0.6,5.6-1.9c2,0.9,4.1,1.8,6.3,2.7
		c-0.2,0.7-0.3,1.2-0.5,1.8c0.3,0,0.6,0.1,0.8,0.1c0.2,0,0.4-0.1,0.5-0.2c0.6-0.6,1.4-1,2-0.3c0.4,0.4,0.3,1.3,0.5,2.1
		c3.5-2.2,6.2,0.9,9.4,1.9c0.5,0.2,0.9,1,1.4,1.5c0.8,0.1,1.9,0,2.8,0.4c5,2.1,9.9,4.3,14.8,6.4c11.2,4.8,22.5,9.5,33.7,14.3
		c16.3,7,32.5,14,48.7,21c17.2,7.4,34.5,14.8,51.7,22.2c1.1,0.5,2.2,1,3.9,1.8c-2.2,1.3-3.8,2.4-5.6,3.3c-1.6,0.8-2.2,1.9-1.9,3.6
		c0.7,5.4,1.2,10.9,1.8,16.3c0.1,0.8,0.5,1.7,0.9,2.4c8.7,13.9,17.5,27.9,26.3,41.8c0.3,0.5,0.8,1,1.5,1.8c0.2-1.3,0.3-2.1,0.4-3
		c0.5-10.3,1-20.6,1.4-30.8c0.1-3.4,0.2-6.7,0.3-10.1c0-2,0.8-3.5,2.4-4.8c-0.6-0.2-1.2-0.4-2.2-0.7c1.7-39.7,3.3-79.5,5-119.2
		c2.3-0.7,58.6-0.9,63.4-0.4c0.2,0.5,0.4,1,0.6,1.3c1.5-0.1,2.8-0.2,4.4-0.2c0.1,1.6,0.1,3.1,0.2,4.6c0.2,3.4,0.2,3.4-1.2,3
		c0.1,0.7,0.1,1.8,0.4,1.9c1.5,0.4,1.3,1.5,1.3,2.5c0.6,11.2,1.2,22.5,1.8,33.7c0.1,1.8,0.3,3.6,0.3,5.5c0,3.4-0.1,6.7,0,10.1
		c0,1.1,0.6,2.2,0.7,3.4c0.2,2.5,0.3,5,0.3,7.5c0,0.6-0.5,1.3-0.7,2c1.3,1,1.4,1.8,1.2,8c-1.4,0.2-2,1.3-2.5,2.5c0,0.2,0,0.3,0,0.5
		c0-0.2,0-0.4,0-0.5c0.9,0.3,1.8,0.7,3,1.1c0.2,5.8,0.5,11.8,0.7,17.7c0,0.3-0.6,0.6-1.1,1c0.5,0.4,1,0.8,1.3,1.3
		c0.3,0.5,0.2,1.1,0.3,1.7c0.2,3.5,0.4,7.1,0.6,10.7c0.7,14.6,1.3,29.2,2.1,43.7c0.8,14.3,1.6,28.6,2.5,42.8
		c0.1,1.1,0.2,2.1,0.1,3.2c-0.1,0.7-0.4,1.4-0.8,2.5c0.5,0.9,1.7,2.2,0.4,3.9c-0.2,0.2,0.1,0.9,0.2,1.3c0.4,1.9,0.7,3.7,1.1,5.9
		c-1-0.4-1.7-0.8-2.3-0.8c-0.5,0-1.1,0.5-1.6,0.8c0.4,0.5,0.8,0.9,1.2,1.4l-0.1-0.1C564.6,382.3,565,382.5,565.3,382.7L565.3,382.7z
		"/>
</g>
</svg>
