<?xml version="1.0" encoding="utf-8"?>
<!-- Generator: Adobe Illustrator 27.5.0, SVG Export Plug-In . SVG Version: 6.00 Build 0)  -->
<svg version="1.1" id="Ebene_1" xmlns="http://www.w3.org/2000/svg" xmlns:xlink="http://www.w3.org/1999/xlink" x="0px" y="0px"
	 viewBox="0 0 595.3 595.3" style="enable-background:new 0 0 595.3 595.3;" xml:space="preserve">
<style type="text/css">
	.st0{fill:#E50076;}
</style>
<g>
	<path class="st0" d="M487.3,172.3c0.1-0.5,0.2-0.9,0.2-1.4c-0.5,0.1-1.1,0.2-1.6,0.4c0.1,0.4,0.2,0.9,0.4,1.3
		C486.7,172.5,487,172.4,487.3,172.3 M473.9,225.8c2-4.4,3-8.2-0.7-12.7c-2.4,2.4-4.5,4.5-7.1,7.2
		C468.9,222.3,471.3,224,473.9,225.8 M482.1,258.6c-2,2.9-4.9,3.8-8.2,3c-2.9-0.7-5.8-1.8-8.6-2.6c-1.6,1.4-2.8,2.4-4.1,3.5
		c0.4,4.5,4.9,6.2,6.5,9.8c1.3-1,2.5-1.9,3.9-3c2.4,0.3,4.9,0.6,7.7,1c1.8-2.4,3.7-4.8,6.2-8c3.1,3.7,5.3,6.2,8,9.4
		c2-0.7,4.2-1.5,6.5-2.3c-0.5-3.1-0.8-5.4-1.5-10.4c3.2,5.1,5.1,7.9,7.3,11.4c3.1-0.4,6.5-0.9,9.3-1.4c6.5,4.2,3.3,14.4,12.2,15.8
		c-9.5,13.8-9.5,13.8-21.4,19.3c-1.7-0.9-3.8-3-5-2.5c-4.1,1.4-7.9,2.8-11.5-1c-8.5,0.6-17.4,0.1-23.9,7.3
		c-3.4-1.2-6.7-2.4-10.3-3.7c-0.9-2.1-1.9-4.4-2.8-6.6c-3.5-2-4.7,0.6-6.7,3.5c-4-0.9-8.4-2-13.6-3.1c-1.5,1.9-3,3.8-4.7,5.9
		c-4.4,1.4-8.7,0.8-12.5-3.2c-3.2,1.3-6.4,2.7-10,4.2c-2.1-2.3-4.2-4.5-6.9-7.3c-4.1,2.1-8.3,6.4-13.5,4.5
		c-6.4-2.3-12.7-0.9-18.2,1.2c-6.2,2.5-12-2.1-18.1,0.5c-2.1,0.9-5.7-1.9-8.3-2.8c-1.3-2.1-2.4-3.8-3.9-6.2c0.8-1.9,1.9-4.2,2.6-6.6
		c0.7-2.4,1-4.9,1.7-8.2c7.4-2.3,14.9-6.1,23.4-2.7c7.6-3.7,16.3-1.4,24.4-4.6c3,1.4,6.2,3,9.6,4.6c16.3-6.4,33.5-4.5,51.3-6.2
		c1.7-1.2,4.1-3.1,6.5-4.8V257c-4.7-5.4-4.8-5.3-8.8-6.2c-4.6-7.7-8-15.3-13.3-21.3c-3.6-4.1-4.9-9-8.1-13c-4-5.1-5-11.2-3.8-17.7
		c0.6-3.4,0.1-7.1,0.1-12c1.9-4.6,4.9-9.9,11.2-12.4c9.4-10.3,22.7-16.7,30.1-29.6c8.5-4,17.3-8.2,26-12.3c-2.9-1.9-5.8-3.8-9.8-6.3
		c-11.3,2.2-23.4,0.9-35.4-2.7c-1.8-0.5-4,0.3-6,0.5c-1.5,0.2-3.4,1.1-4.5,0.6c-10.1-5.1-20.5-0.1-30.7-1.1
		c-10.4-1-20.2,2.9-30.5,2.8c-2.7,0-5.3,2.7-8.2,4.3c-13-0.8-16.2-1.8-27.9-8.9c-0.8-4.1-2.1-8.6-2.6-13.2
		c-0.4-4.1-0.1-8.2-0.1-13.6c2-2,4.6-4.5,6.4-6.4c8.4-1.1,15.4-3.5,22.7-0.9c1.6,0.6,4.2-0.4,5.8-1.4c2.5-1.5,4.8-1.3,7.4-0.6
		c7.5,1.9,15.1-1.1,22.7,1c2.3,0.6,5.2-0.2,7.6-1.1c4.1-1.5,7.9-1,12.1-0.5c5.5,0.7,11.6-2,16.7-0.6c6.4,1.8,10.9-2.7,16.9-2.5
		c1.9,1.1,4.2,2.4,6.4,3.7c3.7-2.8,7.2-5.9,12.3-2.4c1.6,1.1,3.7,2.1,5.6,2c8.2-0.4,16.5-1.2,25.2-1.8c2.9,1.9,6.2,4.3,10.1,0.4
		c4.4,3.1,8.1,5.8,11.6,8.4c1.6,9.7,4.9,18.7,3.4,28.6c-0.4,2.7,1.8,5.8,3,9.3c-2.2,0.4-4.6,0.8-7.1,1.3c-1.1-1.3-2-3.4-4.4-1.1
		c1.8,0.3,3.3,0.5,4.7,0.7c-1.7,2.3-4.1,3.1-6.8,2.4c-2.4-0.7-4.8-1.7-6.9-2.5c-5.8,3-5.8,3-9.7,8.2c2.1,1.2,4.2,2.4,6.8,4v8.6
		c-1.6,0.2-3.1,0.5-4.5,0.7c-3.1,4.4,0.1,6.4,3.4,8.7c-2,0.9-3.8,1.7-5.5,2.6c0.8,1.2,1.6,2.5,2.3,3.7c-1,7.6-7.2-0.7-10.2,5.4
		c-0.1,0.5-0.4,3.5-0.8,6.7c-2.3,0.8-4.6,1.7-7.7,2.8c-0.4,1.5-0.8,3.4-1.3,5.3l0.4-0.4c-1.6,1.1-3.2,2.2-5.1,3.5
		c0.7,2.4,1.2,4.3,2,7.3c-1.5,2.3-3.4,5.2-5,7.6c-6.7,1.3-3.7-7.5-8.9-7.1c-3.6,1.9-2.3,4.9-1.5,8.8c4.3,1.2,9.1,2.6,13.5,3.9
		c4.1,9.1-1,19.5,6.3,27.6c2.8-2.1,4.4-5.2,4.5-8.5c0.1-4,1.5-6.9,4.9-8.9c2.1,3,0.8,5.7-0.1,8.7c-1.4,4.8-3.6,10.1-2.9,14.8
		c1.2,7.7-2.4,11.4-8.1,14.6c-1-1.5-1.9-3.1-4.2-0.8C479.3,258.4,480.7,258.5,482.1,258.6"/>
	<path class="st0" d="M253.4,155.4c1.5,0.5,2.9,0.9,4.3,1.4c2.9,3.7-1,7-0.1,11.8c5.4,7.7,11.6,16.4,13.3,26.6
		c2.6,1.7,4.6,3.1,6.9,4.6c-2.7,2.4-4.8,4.4-7.6,6.9c1.2,5.4,2.4,10.9,3.8,17.6c-1.4,6.7-4,14.7-4.5,22.9
		c-0.6,9.2-5.8,16.5-8.1,24.9c-2.4,8.4-10.5,13.1-13.6,20.4c-3.4,8.2-10.2,12.5-15.3,18.8h-4.4c-4.6-4.3-9-8.5-14.4-13.6
		c-1.4-4.9-4.5-11-2-19.2c4.4-4.7,9.9-9.8,11.7-18c0.9-4.2,5.1-7.6,8-11.8c1.6-10.3,1.9-21,0.8-31.7c-0.3-3.6-0.9-7.3-0.5-10.8
		c0.7-5.5,0.3-10.5-3.6-14.5c-3-3.2-0.5-7-1.8-11.2c-8.7-6.2-15.4-15.3-22.5-24c-6.7-8.2-14.2-13.5-25.8-12.8
		c-2.8-2.7-5.8-5.5-8.5-8c1.4-10.5,2.6-19.6,3.9-29.3c2.6-0.8,5.1-2.3,7.3-2c6.6,1,13.1,2.9,19.7,4.2c5,0.9,8.4,3.7,10.4,8.1h6.5
		c9.4,8.1,19,15.8,26.9,25.3c2.5,3,6.5,4.7,10.4,7.4c-0.3,1.6-0.6,4.2-1,6.7c-1.3,0.5-2.6,1-4.3,1.7c0.8,1,1.6,1.9,3.2,4
		C253.1,158.7,253.2,157.1,253.4,155.4"/>
	<path class="st0" d="M453.9,349.6c-0.6-1.4-1.2-2.8-1.9-4.7c1.4-1.6,3.9-3.2,4.3-5.2c1-5.4,1.2-11,1.8-17.9
		c4.9-5.4,12.8-4.4,20.3-4.7c4.1-0.2,8.1,0.4,12.2,0.4c8.3,0.1,16.7-0.5,24.5,3.1c2.2,1,4,2.9,6.3,4.6c2-0.1,4.5-0.3,7.2-0.5
		c3.4,4.2,6.6,8.2,9.8,12.2c1.3,4.5,2.6,8.9,4,13.9c4,2.8,8.2,5.9,13.2,9.5c3.5,5.3,4.3,12.2,4.6,19.7c0.3,8.1,2.3,16.2,3.7,24.9
		c-1.1,2.2-2.6,4.8-3.7,7.6c-0.5,1.3,0.2,2.9,0.3,4.5c-1.9,1-3.7,1.8-5.7,2.8c-2.2,4.5-5.8,8.6-4.7,14.2c-2.7,2.5-5.3,4.9-7.8,7.3
		c-6.3-3.2-10,2.4-13.6,5.3c-7.6,6.1-7.2,6.5-16.8,7.9c-3.5,0.5-6.9,1.4-9.4,4.6c-1.5,1.9-4,3.1-6,4.6c-3.3-1-6.2-1.9-9.7-3
		c-0.7,1.9-1.3,3.6-2.2,6.2c-3.8,0.9-8.1,2-13.6,3.4c1.5-3.3,2.6-5.7,3.7-8.2c-3.4-2.2-4.3,1.8-6.4,2.3c-0.5,0.1-1.1,0.5-1.5,0.3
		c-3.6-1.4-7.2-2.8-10.8-4.3c0.6-1.2,1.1-2.1,1.7-3c-1.8-3.1-8.7-2-7.1-8.1l-0.4,0.3c3.5-0.2,6.9-0.4,10.7-0.6
		c1.1-5.2,2.1-9.6,2.6-11.8c6.8-6.7,8.3,4.2,13.5,1.3c0.7-2.1,1.4-4.1,2.1-6.1c4.4,2.3,1.6,8.7,6.7,9.9c5.1-3.2,1.8-9.1,3.5-13.6
		c2.5,1.8,4.2,3,6.1,4.3c3.7-1.8,7.3-3.5,10.4-5c3.1,0.9,5.5,1.6,7.2,2c8.1-3.3,9.1-11.5,13.7-16.6c3.5,1.5,0,7,5,6.9
		c0.1-5.3,2.4-10.8-1.4-15.8c1.1-2.3,2.2-4.6,3.4-7.1c-1.2-1.1-2.4-2.1-3.4-3.1c-6.5-6.3-15.6-10.3-17.7-20.4
		c-0.1-0.6-1.5-1-2.7-1.7c-1.5,1.1-3.2,2.2-5,3.5c-2.8-0.8-5.7-1.7-8.7-2.6c1.7-4.9,3.4-9.5,5-14.3c0.1-0.3-1.1-1.1-2.1-2.1
		c-1.3,2.7-2.5,5.3-3.6,7.6h-10.9c-1.9-2.9-3.6-5.4-4.9-7.4c-3.6-1.2-5.8-0.1-7.6,2l0.4-0.4c-3.9-0.3-7.7-0.6-11.7-0.9
		c0.3-3.5,0.6-6.3,0.9-8.9c-3.3,0.2-5.8,0.3-8.2,0.5L453.9,349.6z"/>
	<path class="st0" d="M148.7,120.4c-6.6,4.6-10.8,11.4-18.8,11.9c-7.9,5.7-16.8,10.4-23.6,17.2c-8.6,8.7-15.8,18.9-21.9,29.6
		c-0.9,1.7-1.8,4.2-1.3,5.8c1.7,5-2.1,7.6-4.3,11.5c0.5,2.7,1.1,5.7,1.6,8.7c0.7,4.6,1.8,9.1,1.9,13.7c0.2,10.5,5.1,24.8,11.5,32.4
		c4.7,5.6,10.4,8.1,18.3,6.2c0.2,2.6,1,5.3,0.3,7.6c-2.6,9.9-5.2,19.8-9.5,30c-3.9-1-7.8-1.1-10.5-2.9c-7.2-5-14.3-10.4-20.7-16.4
		c-10.7-9.9-15.5-23.4-19-36.8c-2.7-10.4-4.3-21.2-4.6-32.2c-0.4-18,4.3-34.8,11.3-51c4.8-11.1,13.4-19.6,21.6-28.2
		c5.6-5.9,10.9-12.1,18.5-16.3c10.6-5.8,21.2-10.4,33.4-11.1c4-0.2,8-1.6,12.8-2.6c0.7,2,1.8,3.7,1.9,5.5c0.3,3.1,0.1,6.2,0,9.3
		C147.5,115.3,150.6,118.1,148.7,120.4"/>
	<path class="st0" d="M438.2,502.1c0.4-0.3,0.8-0.6,1.2-0.9c-0.8-0.4-1.6-0.9-2.5-1.2c-0.3-0.1-0.7,0.6-1.1,1
		C436.6,501.3,437.4,501.7,438.2,502.1 M430.9,488.4c-0.2,0-0.5-0.1-0.7-0.1c-0.3,0.8-0.7,1.7-0.9,2.6c-0.1,0.3,0.6,0.7,0.9,1
		C430.5,490.7,430.7,489.6,430.9,488.4 M430.1,479.5c-0.2,0.4-0.7,0.7-0.7,1.1c0,0.4,0.3,0.8,0.4,1.2c0.2-0.4,0.7-0.7,0.7-1.1
		C430.5,480.4,430.2,479.9,430.1,479.5 M439.6,447.7c-0.4,0.4-1,0.8-1,1.1c0.1,0.9,0.6,1.8,0.9,2.6c0.4-0.3,1.1-0.7,1-1
		C440.4,449.6,440,448.7,439.6,447.7 M440.3,325.8c0.3,0.3,0.6,1,0.9,0.9c0.8-0.1,1.6-0.5,2.4-0.8c-0.3-0.3-0.6-1-0.8-1
		C441.9,325.1,441.1,325.5,440.3,325.8 M450.7,449.2c-1.9-0.4-3.7-0.9-6.2-1.5c-0.4,4.4-0.8,8-1.2,12.1c3,2.7,6.3,5.8,9.4,8.7
		c-3.2,6.6-9.5,2.2-14.3,4.5c2.2,2.6,3.7,4.5,5.2,6.3c-0.6,2.9-4.1,5.1-1.8,8.8c2.2,0.1,4.6,0.2,7.3,0.4c1.9,5.4-3.3,8.4-4,13.3
		c0.5,2.4,1.1,5.4,1.7,8.6c-1.7,0.6-3.2,1.6-4.5,1.4c-2-0.4-3.7-2-5.7-2.3c-1.1-0.2-2.5,1.2-4.2,2.1c1.8,2.9,3.5,5.3,4.8,7.9
		c1.1,2.3,1.5,4.8,2.1,7c2.5,0.9,4.4,1.5,6.5,2.2c-3.2,2.2-6.3,4.3-9.5,6.5c-1.6-3.1-3-5.8-4.7-9.1c-1.6,2.5-2.9,4.3-4.1,6.2
		c-5.4-0.8-2.4-4.5-2.6-7.2c-1.7-1.9-3.4-3.7-5.4-6.1c2-9.2-1.6-19.5,4.7-28c-2.7-5.3-5.3-10.3-7.7-15.1c1.1-3.4,2-6.3,3.1-9.5
		c-2.9-7.1-4.7-14.1-1.4-22.2c2.3-5.6,1.2-12-1.3-17.9c-1.2-2.8-3.4-6.1-2.8-8.5c3.2-12.4-1-24.5-1-36.7c0-9.2-1.5-18.4-2.7-27.6
		c-0.3-2.4-1.9-4.7-2.7-6.7c0.4-6.6,3.6-11.9,3.5-18.4c-0.1-8.6,8.3-13.3,18.1-12.1c5.6,5.2,13.7,2.3,19.7,6.2
		c0.4,0.3,0.7,0.7,1.3,1.3c0.5,3.7,1.1,7.7,1.6,12.1c-6.7,3-7.5,9.6-9.3,16.2c2,0.4,3.4,0.6,4.9,0.9l-0.3-0.5
		c-0.6,1.4-1.2,2.8-1.7,4.2c1.4,3.2,2.9,6.3,4.3,9.5c-2.7,3.6-5.1,6.9-7.5,10.1c2.8,2.2,5.2,2,6.8-0.7c2.3-3.9,5.6-5.4,10.2-4.9
		c-3,5.6-7.4,10.6-8.3,16.2c-1.1,6.2,0.9,12.9,1.6,19.5c-4.6-0.9-5.2-9.3-12.3-5.9c1.8,3.5,3.4,7,5.3,10.3c2,3.5,4.3,6.8,6.6,10.3
		v8.7c-2.6,2.1-4.9,4-5,4c-6.9,9.1,3,8.5,3.5,12.6c-0.1,1.2-0.1,2.2-0.2,3.2L450.7,449.2z"/>
	<path class="st0" d="M134.3,375c0.9-3.2,1.7-5.6,2.3-7.9c1-0.7,1.8-1.5,2.7-1.8c9.1-3.4,15.2-10.7,20.7-18
		c7.2-9.7,17.3-16.1,25.1-24.5c6.9,2.1,11.3,5.6,13.8,12c1,2.6,4.1,4.3,6.6,6.9c-2,3.8-4.2,8.1-6.8,12.9c-2.1,0.6-4.5,1.3-7.3,2.1
		c-0.4,2.2-0.8,4.6-1.3,7.2c-2,0.6-3.9,1.2-5,1.5c-9.4,9.8-18.3,19-28.5,29.6c1.8,0.8,3.6,1.6,5.6,2.4c-1.8,3-3.1,5.1-4.9,8
		c1.1,3.3,2.3,7.1,3.7,11.5c1.7-1.2,2.8-1.9,4.6-3.1c0.7,5.4,0.1,11.3,5,15v14c-4.7,0.9-9.7,2-14.8,3c-2.5-0.9-4.9-1.7-7.7-2.7
		c-5.3-9.7-11.6-19.1-13.8-30.2c-10.6,0.2-12.7,11.4-21.3,14.4c-7.6,2.6-14,8.6-18.9,11.7c-9.1,1.7-15.7,3-22.3,4
		c-1.9,0.3-4.1-0.5-4.8-4.4c1.6-2.1,3.4-5.2,5.9-7.6c5.6-5.4,11.5-10.3,17.2-15.5C104.9,401.8,119.8,388.2,134.3,375"/>
	<path class="st0" d="M59.5,490.2c0.5-7.9-8-11.9-3.7-20.5c1.8-0.4,4.1-1.4,6.6-1.5c9.4-0.2,18.9,0.9,28-0.5
		c11.8-1.8,23.8,1.5,35.4-1.6c10.6,3.1,21.4-2.1,32,0.8c2.8,0.8,6.2,0.5,9-0.2c8.7-2.4,17.5-1.3,25.9-1c1.4,1.4,2.4,2.5,3.7,3.9
		c8.5-4.5,17.3-6.5,27-3.7c1.9,0.6,4.1,0.5,6.1,0.3c10.3-1.1,20.5-2.3,31.5-3.5c0.8,10.2,8.7,16.2,13.1,24.8
		c-4.3,3.4-8.5,4.3-14,3.5c-5.9-0.9-12.4-1.6-17.7,2.8c-3-0.8-7.1-3.1-8.8-2c-5.2,3.6-10.4,1.8-14.9,0.4c-6.2-1.8-12.5,1.1-18.1-1.2
		c-5.9-2.4-11.3,0.4-16.7,0.9c-9.3,0.9-18.4,1.7-27.7-0.6c-4.5-1.1-9.3-1.5-13.9-1.1c-10.8,0.9-21.5,1.5-32.4,0.4
		c-9.8-0.9-19.7,0.2-29.6,0.2C74.2,490.9,68,490.5,59.5,490.2"/>
	<path class="st0" d="M155.9,114.4v5.3c-0.3,0-0.5,0-0.8,0v-5.3C155.4,114.4,155.6,114.4,155.9,114.4"/>
	<path class="st0" d="M478.1,312.8c-2.4-3.3-3.2-4.5-4-5.6c0.9-0.3,1.8-0.6,2.7-0.9C477.1,307.6,477.3,308.9,478.1,312.8"/>
	<path class="st0" d="M490.2,313.6c-3-2.2-2.4-3.9,0-7.7V313.6z"/>
	<path class="st0" d="M465.7,476c-2.5-3.5-3.3-4.6-4.1-5.7c0.8-0.3,1.7-0.5,2.5-0.8C464.4,470.7,464.7,471.9,465.7,476"/>
	<path class="st0" d="M517.8,148.7c0.1,0.4,0.2,0.8,0.3,1.2c-0.4,0.1-0.9,0.2-1.3,0.3c0.1-0.4,0-0.8,0.2-1.2
		C517.1,148.8,517.5,148.7,517.8,148.7"/>
	<path class="st0" d="M481.5,187.2c1.4,1,3.1,2,1.1,5.1c-0.3-2.4-0.5-4-0.7-5.5L481.5,187.2z"/>
	<path class="st0" d="M87.6,197.5c-0.4,0.3-0.7,0.6-1.1,0.8c-0.3-0.8-0.6-1.5-0.7-2.3c0-0.3,0.6-0.6,0.9-0.9
		C87,195.9,87.3,196.7,87.6,197.5"/>
	<path class="st0" d="M88.8,206.1c0.3,0.4,0.6,0.7,0.9,1.1c-0.8,0.4-1.6,0.9-2.4,1.2c-0.1,0-0.5-0.7-0.8-1.1
		C87.2,206.9,88,206.5,88.8,206.1"/>
	<path class="st0" d="M527,272.1c0.3,0.8,0.7,1.6,0.8,2.5c0,0.2-0.7,0.6-1.1,0.9c-0.3-0.9-0.7-1.7-1-2.6
		C525.7,272.7,526.5,272.3,527,272.1"/>
	<path class="st0" d="M436.7,307.5c0.1,0.4,0.4,0.8,0.3,1.2c-0.1,0.4-0.4,0.7-0.7,1.1c-0.1-0.4-0.4-0.9-0.3-1.3
		C436.1,308.2,436.5,307.9,436.7,307.5"/>
	<path class="st0" d="M447.5,352.8c0.8-3.8,4.2-2.2,6.4-3.2l-0.5-0.4c-1.4,2.5-3.3,3.8-6.3,3.1L447.5,352.8z"/>
	<path class="st0" d="M479.9,370.1c-0.4,0.8-0.7,1.9-1.4,2.4c-0.4,0.3-2.1-0.5-2.1-0.8c0-0.8,0.4-2.2,0.9-2.4
		C478,369,479.1,369.8,479.9,370.1"/>
	<path class="st0" d="M472.1,358.9c2.1,0.7,2.7,1.9,1.6,6.5c-0.7-4.1-0.9-5.5-1.2-6.9L472.1,358.9z"/>
	<path class="st0" d="M455.3,434.8c0.3,0.3,0.9,0.7,0.8,1c-0.2,0.8-0.7,1.5-1,2.3c-0.3-0.3-0.9-0.7-0.8-1
		C454.5,436.3,454.9,435.6,455.3,434.8"/>
</g>
</svg>
